<?xml version="1.0" encoding="UTF-8" standalone="no"?>
<!-- Created with Inkscape (http://www.inkscape.org/) -->

<svg
   version="1.1"
   id="svg2"
   width="4946.6665"
   height="4946.6665"
   viewBox="0 0 4946.6665 4946.6665"
   xmlns="http://www.w3.org/2000/svg"
   xmlns:svg="http://www.w3.org/2000/svg">
  <defs
     id="defs6">
    <clipPath
       clipPathUnits="userSpaceOnUse"
       id="clipPath18">
      <path
         d="M 0.06,3710 H 3710 V 0 H 0.06 Z"
         id="path16" />
    </clipPath>
    <linearGradient
       x1="0"
       y1="0"
       x2="1"
       y2="0"
       gradientUnits="userSpaceOnUse"
       gradientTransform="matrix(-2446.53,3038.4399,3038.4399,2446.53,3573.9199,-319.5298)"
       spreadMethod="pad"
       id="linearGradient36">
      <stop
         style="stop-opacity:1;stop-color:#dae3fe"
         offset="0"
         id="stop32" />
      <stop
         style="stop-opacity:1;stop-color:#e9effd"
         offset="1"
         id="stop34" />
    </linearGradient>
    <linearGradient
       x1="0"
       y1="0"
       x2="1"
       y2="0"
       gradientUnits="userSpaceOnUse"
       gradientTransform="matrix(210.476,0,0,-210.476,1058.8899,1852.1602)"
       spreadMethod="pad"
       id="linearGradient62">
      <stop
         style="stop-opacity:1;stop-color:#dae3fe"
         offset="0"
         id="stop58" />
      <stop
         style="stop-opacity:1;stop-color:#e9effd"
         offset="1"
         id="stop60" />
    </linearGradient>
    <linearGradient
       x1="0"
       y1="0"
       x2="1"
       y2="0"
       gradientUnits="userSpaceOnUse"
       gradientTransform="matrix(210.04,0,0,-210.04,824.828,1852.1802)"
       spreadMethod="pad"
       id="linearGradient80">
      <stop
         style="stop-opacity:1;stop-color:#dae3fe"
         offset="0"
         id="stop76" />
      <stop
         style="stop-opacity:1;stop-color:#e9effd"
         offset="1"
         id="stop78" />
    </linearGradient>
    <linearGradient
       x1="0"
       y1="0"
       x2="1"
       y2="0"
       gradientUnits="userSpaceOnUse"
       gradientTransform="matrix(209.603,0,0,-209.603,591,1852.2101)"
       spreadMethod="pad"
       id="linearGradient98">
      <stop
         style="stop-opacity:1;stop-color:#dae3fe"
         offset="0"
         id="stop94" />
      <stop
         style="stop-opacity:1;stop-color:#e9effd"
         offset="1"
         id="stop96" />
    </linearGradient>
    <linearGradient
       x1="0"
       y1="0"
       x2="1"
       y2="0"
       gradientUnits="userSpaceOnUse"
       gradientTransform="matrix(210.107,0,0,-210.107,1056.28,1699.0302)"
       spreadMethod="pad"
       id="linearGradient116">
      <stop
         style="stop-opacity:1;stop-color:#dae3fe"
         offset="0"
         id="stop112" />
      <stop
         style="stop-opacity:1;stop-color:#e9effd"
         offset="1"
         id="stop114" />
    </linearGradient>
    <linearGradient
       x1="0"
       y1="0"
       x2="1"
       y2="0"
       gradientUnits="userSpaceOnUse"
       gradientTransform="matrix(209.672,0,0,-209.672,822.626,1699.13)"
       spreadMethod="pad"
       id="linearGradient134">
      <stop
         style="stop-opacity:1;stop-color:#dae3fe"
         offset="0"
         id="stop130" />
      <stop
         style="stop-opacity:1;stop-color:#e9effd"
         offset="1"
         id="stop132" />
    </linearGradient>
    <linearGradient
       x1="0"
       y1="0"
       x2="1"
       y2="0"
       gradientUnits="userSpaceOnUse"
       gradientTransform="matrix(209.235,0,0,-209.235,589.2048,1699.22)"
       spreadMethod="pad"
       id="linearGradient152">
      <stop
         style="stop-opacity:1;stop-color:#dae3fe"
         offset="0"
         id="stop148" />
      <stop
         style="stop-opacity:1;stop-color:#e9effd"
         offset="1"
         id="stop150" />
    </linearGradient>
    <linearGradient
       x1="0"
       y1="0"
       x2="1"
       y2="0"
       gradientUnits="userSpaceOnUse"
       gradientTransform="matrix(209.738,0,0,-209.738,1053.6801,1547.2201)"
       spreadMethod="pad"
       id="linearGradient170">
      <stop
         style="stop-opacity:1;stop-color:#dae3fe"
         offset="0"
         id="stop166" />
      <stop
         style="stop-opacity:1;stop-color:#e9effd"
         offset="1"
         id="stop168" />
    </linearGradient>
    <linearGradient
       x1="0"
       y1="0"
       x2="1"
       y2="0"
       gradientUnits="userSpaceOnUse"
       gradientTransform="matrix(209.304,0,0,-209.304,820.432,1547.4)"
       spreadMethod="pad"
       id="linearGradient188">
      <stop
         style="stop-opacity:1;stop-color:#dae3fe"
         offset="0"
         id="stop184" />
      <stop
         style="stop-opacity:1;stop-color:#e9effd"
         offset="1"
         id="stop186" />
    </linearGradient>
    <linearGradient
       x1="0"
       y1="0"
       x2="1"
       y2="0"
       gradientUnits="userSpaceOnUse"
       gradientTransform="matrix(208.87,0,0,-208.87,587.417,1547.5702)"
       spreadMethod="pad"
       id="linearGradient206">
      <stop
         style="stop-opacity:1;stop-color:#dae3fe"
         offset="0"
         id="stop202" />
      <stop
         style="stop-opacity:1;stop-color:#e9effd"
         offset="1"
         id="stop204" />
    </linearGradient>
    <linearGradient
       x1="0"
       y1="0"
       x2="1"
       y2="0"
       gradientUnits="userSpaceOnUse"
       gradientTransform="matrix(209.371,0,0,-209.371,1051.09,1395.9399)"
       spreadMethod="pad"
       id="linearGradient224">
      <stop
         style="stop-opacity:1;stop-color:#dae3fe"
         offset="0"
         id="stop220" />
      <stop
         style="stop-opacity:1;stop-color:#e9effd"
         offset="1"
         id="stop222" />
    </linearGradient>
    <linearGradient
       x1="0"
       y1="0"
       x2="1"
       y2="0"
       gradientUnits="userSpaceOnUse"
       gradientTransform="matrix(208.939,0,0,-208.939,818.245,1396.1899)"
       spreadMethod="pad"
       id="linearGradient242">
      <stop
         style="stop-opacity:1;stop-color:#dae3fe"
         offset="0"
         id="stop238" />
      <stop
         style="stop-opacity:1;stop-color:#e9effd"
         offset="1"
         id="stop240" />
    </linearGradient>
    <linearGradient
       x1="0"
       y1="0"
       x2="1"
       y2="0"
       gradientUnits="userSpaceOnUse"
       gradientTransform="matrix(208.506,0,0,-208.506,585.6339,1396.4401)"
       spreadMethod="pad"
       id="linearGradient260">
      <stop
         style="stop-opacity:1;stop-color:#dae3fe"
         offset="0"
         id="stop256" />
      <stop
         style="stop-opacity:1;stop-color:#e9effd"
         offset="1"
         id="stop258" />
    </linearGradient>
    <linearGradient
       x1="0"
       y1="0"
       x2="1"
       y2="0"
       gradientUnits="userSpaceOnUse"
       gradientTransform="matrix(209.004,0,0,-209.004,1048.51,1245.1899)"
       spreadMethod="pad"
       id="linearGradient278">
      <stop
         style="stop-opacity:1;stop-color:#dae3fe"
         offset="0"
         id="stop274" />
      <stop
         style="stop-opacity:1;stop-color:#e9effd"
         offset="1"
         id="stop276" />
    </linearGradient>
    <linearGradient
       x1="0"
       y1="0"
       x2="1"
       y2="0"
       gradientUnits="userSpaceOnUse"
       gradientTransform="matrix(208.574,0,0,-208.574,816.0659,1245.51)"
       spreadMethod="pad"
       id="linearGradient296">
      <stop
         style="stop-opacity:1;stop-color:#dae3fe"
         offset="0"
         id="stop292" />
      <stop
         style="stop-opacity:1;stop-color:#e9effd"
         offset="1"
         id="stop294" />
    </linearGradient>
    <linearGradient
       x1="0"
       y1="0"
       x2="1"
       y2="0"
       gradientUnits="userSpaceOnUse"
       gradientTransform="matrix(208.143,0,0,-208.143,583.8569,1245.8401)"
       spreadMethod="pad"
       id="linearGradient314">
      <stop
         style="stop-opacity:1;stop-color:#dae3fe"
         offset="0"
         id="stop310" />
      <stop
         style="stop-opacity:1;stop-color:#e9effd"
         offset="1"
         id="stop312" />
    </linearGradient>
    <linearGradient
       x1="0"
       y1="0"
       x2="1"
       y2="0"
       gradientUnits="userSpaceOnUse"
       gradientTransform="matrix(208.64,0,0,-208.64,1045.9299,1094.9502)"
       spreadMethod="pad"
       id="linearGradient332">
      <stop
         style="stop-opacity:1;stop-color:#dae3fe"
         offset="0"
         id="stop328" />
      <stop
         style="stop-opacity:1;stop-color:#e9effd"
         offset="1"
         id="stop330" />
    </linearGradient>
    <linearGradient
       x1="0"
       y1="0"
       x2="1"
       y2="0"
       gradientUnits="userSpaceOnUse"
       gradientTransform="matrix(208.211,0,0,-208.211,813.8939,1095.3502)"
       spreadMethod="pad"
       id="linearGradient350">
      <stop
         style="stop-opacity:1;stop-color:#dae3fe"
         offset="0"
         id="stop346" />
      <stop
         style="stop-opacity:1;stop-color:#e9effd"
         offset="1"
         id="stop348" />
    </linearGradient>
    <linearGradient
       x1="0"
       y1="0"
       x2="1"
       y2="0"
       gradientUnits="userSpaceOnUse"
       gradientTransform="matrix(207.781,0,0,-207.781,582.0869,1095.75)"
       spreadMethod="pad"
       id="linearGradient368">
      <stop
         style="stop-opacity:1;stop-color:#dae3fe"
         offset="0"
         id="stop364" />
      <stop
         style="stop-opacity:1;stop-color:#e9effd"
         offset="1"
         id="stop366" />
    </linearGradient>
    <linearGradient
       x1="0"
       y1="0"
       x2="1"
       y2="0"
       gradientUnits="userSpaceOnUse"
       gradientTransform="matrix(208.277,0,0,-208.277,1043.37,945.2401)"
       spreadMethod="pad"
       id="linearGradient386">
      <stop
         style="stop-opacity:1;stop-color:#dae3fe"
         offset="0"
         id="stop382" />
      <stop
         style="stop-opacity:1;stop-color:#e9effd"
         offset="1"
         id="stop384" />
    </linearGradient>
    <linearGradient
       x1="0"
       y1="0"
       x2="1"
       y2="0"
       gradientUnits="userSpaceOnUse"
       gradientTransform="matrix(207.848,0,0,-207.848,811.7299,945.71)"
       spreadMethod="pad"
       id="linearGradient404">
      <stop
         style="stop-opacity:1;stop-color:#dae3fe"
         offset="0"
         id="stop400" />
      <stop
         style="stop-opacity:1;stop-color:#e9effd"
         offset="1"
         id="stop402" />
    </linearGradient>
    <linearGradient
       x1="0"
       y1="0"
       x2="1"
       y2="0"
       gradientUnits="userSpaceOnUse"
       gradientTransform="matrix(207.421,0,0,-207.421,580.322,946.1799)"
       spreadMethod="pad"
       id="linearGradient422">
      <stop
         style="stop-opacity:1;stop-color:#dae3fe"
         offset="0"
         id="stop418" />
      <stop
         style="stop-opacity:1;stop-color:#e9effd"
         offset="1"
         id="stop420" />
    </linearGradient>
    <linearGradient
       x1="0"
       y1="0"
       x2="1"
       y2="0"
       gradientUnits="userSpaceOnUse"
       gradientTransform="matrix(207.915,0,0,-207.915,1040.8101,796.0302)"
       spreadMethod="pad"
       id="linearGradient440">
      <stop
         style="stop-opacity:1;stop-color:#dae3fe"
         offset="0"
         id="stop436" />
      <stop
         style="stop-opacity:1;stop-color:#e9effd"
         offset="1"
         id="stop438" />
    </linearGradient>
    <linearGradient
       x1="0"
       y1="0"
       x2="1"
       y2="0"
       gradientUnits="userSpaceOnUse"
       gradientTransform="matrix(207.488,0,0,-207.488,809.5739,796.5802)"
       spreadMethod="pad"
       id="linearGradient458">
      <stop
         style="stop-opacity:1;stop-color:#dae3fe"
         offset="0"
         id="stop454" />
      <stop
         style="stop-opacity:1;stop-color:#e9effd"
         offset="1"
         id="stop456" />
    </linearGradient>
    <linearGradient
       x1="0"
       y1="0"
       x2="1"
       y2="0"
       gradientUnits="userSpaceOnUse"
       gradientTransform="matrix(207.062,0,0,-207.062,578.5641,797.1202)"
       spreadMethod="pad"
       id="linearGradient476">
      <stop
         style="stop-opacity:1;stop-color:#dae3fe"
         offset="0"
         id="stop472" />
      <stop
         style="stop-opacity:1;stop-color:#e9effd"
         offset="1"
         id="stop474" />
    </linearGradient>
    <linearGradient
       x1="0"
       y1="0"
       x2="1"
       y2="0"
       gradientUnits="userSpaceOnUse"
       gradientTransform="matrix(207.554,0,0,-207.554,1038.27,647.3402)"
       spreadMethod="pad"
       id="linearGradient494">
      <stop
         style="stop-opacity:1;stop-color:#dae3fe"
         offset="0"
         id="stop490" />
      <stop
         style="stop-opacity:1;stop-color:#e9effd"
         offset="1"
         id="stop492" />
    </linearGradient>
    <linearGradient
       x1="0"
       y1="0"
       x2="1"
       y2="0"
       gradientUnits="userSpaceOnUse"
       gradientTransform="matrix(207.129,0,0,-207.129,807.424,647.96)"
       spreadMethod="pad"
       id="linearGradient512">
      <stop
         style="stop-opacity:1;stop-color:#dae3fe"
         offset="0"
         id="stop508" />
      <stop
         style="stop-opacity:1;stop-color:#e9effd"
         offset="1"
         id="stop510" />
    </linearGradient>
    <linearGradient
       x1="0"
       y1="0"
       x2="1"
       y2="0"
       gradientUnits="userSpaceOnUse"
       gradientTransform="matrix(206.704,0,0,-206.704,576.812,648.5801)"
       spreadMethod="pad"
       id="linearGradient530">
      <stop
         style="stop-opacity:1;stop-color:#dae3fe"
         offset="0"
         id="stop526" />
      <stop
         style="stop-opacity:1;stop-color:#e9effd"
         offset="1"
         id="stop528" />
    </linearGradient>
    <linearGradient
       x1="0"
       y1="0"
       x2="1"
       y2="0"
       gradientUnits="userSpaceOnUse"
       gradientTransform="matrix(-604.109,-3523.96,-3523.96,604.109,2741.29,4500.1851)"
       spreadMethod="pad"
       id="linearGradient576">
      <stop
         style="stop-opacity:1;stop-color:#4042e2"
         offset="0"
         id="stop572" />
      <stop
         style="stop-opacity:1;stop-color:#4f52ff"
         offset="1"
         id="stop574" />
    </linearGradient>
    <linearGradient
       x1="0"
       y1="0"
       x2="1"
       y2="0"
       gradientUnits="userSpaceOnUse"
       gradientTransform="matrix(1068.23,0,0,-1068.23,1712,1588.1002)"
       spreadMethod="pad"
       id="linearGradient596">
      <stop
         style="stop-opacity:1;stop-color:#4042e2"
         offset="0"
         id="stop592" />
      <stop
         style="stop-opacity:1;stop-color:#4f52ff"
         offset="1"
         id="stop594" />
    </linearGradient>
    <linearGradient
       x1="0"
       y1="0"
       x2="1"
       y2="0"
       gradientUnits="userSpaceOnUse"
       gradientTransform="matrix(324.993,749.983,749.983,-324.993,2329.2998,2765.76)"
       spreadMethod="pad"
       id="linearGradient614">
      <stop
         style="stop-opacity:1;stop-color:#09005d"
         offset="0"
         id="stop610" />
      <stop
         style="stop-opacity:1;stop-color:#1a0f91"
         offset="1"
         id="stop612" />
    </linearGradient>
    <linearGradient
       x1="0"
       y1="0"
       x2="1"
       y2="0"
       gradientUnits="userSpaceOnUse"
       gradientTransform="matrix(-731.392,-5069.2998,-5069.2998,731.392,2358.8401,2279.9102)"
       spreadMethod="pad"
       id="linearGradient632">
      <stop
         style="stop-opacity:1;stop-color:#febbba"
         offset="0"
         id="stop628" />
      <stop
         style="stop-opacity:1;stop-color:#ff928e"
         offset="1"
         id="stop630" />
    </linearGradient>
    <linearGradient
       x1="0"
       y1="0"
       x2="1"
       y2="0"
       gradientUnits="userSpaceOnUse"
       gradientTransform="matrix(-731.392,-5069.2998,-5069.2998,731.392,2339.6599,2282.6702)"
       spreadMethod="pad"
       id="linearGradient650">
      <stop
         style="stop-opacity:1;stop-color:#febbba"
         offset="0"
         id="stop646" />
      <stop
         style="stop-opacity:1;stop-color:#ff928e"
         offset="1"
         id="stop648" />
    </linearGradient>
    <linearGradient
       x1="0"
       y1="0"
       x2="1"
       y2="0"
       gradientUnits="userSpaceOnUse"
       gradientTransform="matrix(1072.1899,2131.76,2131.76,-1072.1899,2381.4199,1703.3801)"
       spreadMethod="pad"
       id="linearGradient668">
      <stop
         style="stop-opacity:1;stop-color:#fe7062"
         offset="0"
         id="stop664" />
      <stop
         style="stop-opacity:1;stop-color:#ff928e"
         offset="1"
         id="stop666" />
    </linearGradient>
    <linearGradient
       x1="0"
       y1="0"
       x2="1"
       y2="0"
       gradientUnits="userSpaceOnUse"
       gradientTransform="matrix(118.601,0,0,-118.601,937.5819,534.6399)"
       spreadMethod="pad"
       id="linearGradient686">
      <stop
         style="stop-opacity:1;stop-color:#09005d"
         offset="0"
         id="stop682" />
      <stop
         style="stop-opacity:1;stop-color:#1a0f91"
         offset="1"
         id="stop684" />
    </linearGradient>
    <linearGradient
       x1="0"
       y1="0"
       x2="1"
       y2="0"
       gradientUnits="userSpaceOnUse"
       gradientTransform="matrix(-22.6548,-197.716,-197.716,22.6548,970.5629,669.6699)"
       spreadMethod="pad"
       id="linearGradient706">
      <stop
         style="stop-opacity:1;stop-color:#febbba"
         offset="0"
         id="stop702" />
      <stop
         style="stop-opacity:1;stop-color:#ff928e"
         offset="1"
         id="stop704" />
    </linearGradient>
    <linearGradient
       x1="0"
       y1="0"
       x2="1"
       y2="0"
       gradientUnits="userSpaceOnUse"
       gradientTransform="matrix(170.725,0,0,-170.725,1118.1801,531.63)"
       spreadMethod="pad"
       id="linearGradient726">
      <stop
         style="stop-opacity:1;stop-color:#09005d"
         offset="0"
         id="stop722" />
      <stop
         style="stop-opacity:1;stop-color:#1a0f91"
         offset="1"
         id="stop724" />
    </linearGradient>
    <linearGradient
       x1="0"
       y1="0"
       x2="1"
       y2="0"
       gradientUnits="userSpaceOnUse"
       gradientTransform="matrix(-10.1733,-198.749,-198.749,10.1733,1152.01,648.78)"
       spreadMethod="pad"
       id="linearGradient744">
      <stop
         style="stop-opacity:1;stop-color:#febbba"
         offset="0"
         id="stop740" />
      <stop
         style="stop-opacity:1;stop-color:#ff928e"
         offset="1"
         id="stop742" />
    </linearGradient>
    <linearGradient
       x1="0"
       y1="0"
       x2="1"
       y2="0"
       gradientUnits="userSpaceOnUse"
       gradientTransform="matrix(-234.495,1118.14,-1118.14,-234.495,1120.73,483.1399)"
       spreadMethod="pad"
       id="linearGradient762">
      <stop
         style="stop-opacity:1;stop-color:#09005d"
         offset="0"
         id="stop758" />
      <stop
         style="stop-opacity:1;stop-color:#1a0f91"
         offset="1"
         id="stop760" />
    </linearGradient>
    <linearGradient
       x1="0"
       y1="0"
       x2="1"
       y2="0"
       gradientUnits="userSpaceOnUse"
       gradientTransform="matrix(-518.132,-571.616,-571.616,518.132,1360.22,2010.9301)"
       spreadMethod="pad"
       id="linearGradient780">
      <stop
         style="stop-opacity:1;stop-color:#4042e2"
         offset="0"
         id="stop776" />
      <stop
         style="stop-opacity:1;stop-color:#4f52ff"
         offset="1"
         id="stop778" />
    </linearGradient>
    <linearGradient
       x1="0"
       y1="0"
       x2="1"
       y2="0"
       gradientUnits="userSpaceOnUse"
       gradientTransform="matrix(-755.278,-1386.27,-1386.27,755.278,1259.49,1979.1899)"
       spreadMethod="pad"
       id="linearGradient798">
      <stop
         style="stop-opacity:1;stop-color:#4042e2"
         offset="0"
         id="stop794" />
      <stop
         style="stop-opacity:1;stop-color:#4f52ff"
         offset="1"
         id="stop796" />
    </linearGradient>
    <linearGradient
       x1="0"
       y1="0"
       x2="1"
       y2="0"
       gradientUnits="userSpaceOnUse"
       gradientTransform="matrix(52.6163,143.683,143.683,-52.6163,1060.9399,1822.0402)"
       spreadMethod="pad"
       id="linearGradient816">
      <stop
         style="stop-opacity:1;stop-color:#febbba"
         offset="0"
         id="stop812" />
      <stop
         style="stop-opacity:1;stop-color:#ff928e"
         offset="1"
         id="stop814" />
    </linearGradient>
    <linearGradient
       x1="0"
       y1="0"
       x2="1"
       y2="0"
       gradientUnits="userSpaceOnUse"
       gradientTransform="matrix(-24.4452,-186.672,-186.672,24.4452,1106.48,2285.1702)"
       spreadMethod="pad"
       id="linearGradient834">
      <stop
         style="stop-opacity:1;stop-color:#4042e2"
         offset="0"
         id="stop830" />
      <stop
         style="stop-opacity:1;stop-color:#4f52ff"
         offset="1"
         id="stop832" />
    </linearGradient>
    <linearGradient
       x1="0"
       y1="0"
       x2="1"
       y2="0"
       gradientUnits="userSpaceOnUse"
       gradientTransform="matrix(-24.4452,-186.671,-186.671,24.4452,1149.23,2279.5701)"
       spreadMethod="pad"
       id="linearGradient852">
      <stop
         style="stop-opacity:1;stop-color:#4042e2"
         offset="0"
         id="stop848" />
      <stop
         style="stop-opacity:1;stop-color:#4f52ff"
         offset="1"
         id="stop850" />
    </linearGradient>
    <linearGradient
       x1="0"
       y1="0"
       x2="1"
       y2="0"
       gradientUnits="userSpaceOnUse"
       gradientTransform="matrix(-313.499,-249.689,-249.689,313.499,1190.2699,2037.5699)"
       spreadMethod="pad"
       id="linearGradient870">
      <stop
         style="stop-opacity:1;stop-color:#febbba"
         offset="0"
         id="stop866" />
      <stop
         style="stop-opacity:1;stop-color:#ff928e"
         offset="1"
         id="stop868" />
    </linearGradient>
    <linearGradient
       x1="0"
       y1="0"
       x2="1"
       y2="0"
       gradientUnits="userSpaceOnUse"
       gradientTransform="matrix(143.69,-185.001,-185.001,-143.69,1069.24,2119.71)"
       spreadMethod="pad"
       id="linearGradient888">
      <stop
         style="stop-opacity:1;stop-color:#09005d"
         offset="0"
         id="stop884" />
      <stop
         style="stop-opacity:1;stop-color:#1a0f91"
         offset="1"
         id="stop886" />
    </linearGradient>
    <linearGradient
       x1="0"
       y1="0"
       x2="1"
       y2="0"
       gradientUnits="userSpaceOnUse"
       gradientTransform="matrix(-154.282,-118.049,-118.049,154.282,1158.71,2051.25)"
       spreadMethod="pad"
       id="linearGradient906">
      <stop
         style="stop-opacity:1;stop-color:#febbba"
         offset="0"
         id="stop902" />
      <stop
         style="stop-opacity:1;stop-color:#ff928e"
         offset="1"
         id="stop904" />
    </linearGradient>
    <linearGradient
       x1="0"
       y1="0"
       x2="1"
       y2="0"
       gradientUnits="userSpaceOnUse"
       gradientTransform="matrix(-326.66,-282.173,282.173,-326.66,1523.8699,1973.26)"
       spreadMethod="pad"
       id="linearGradient924">
      <stop
         style="stop-opacity:1;stop-color:#febbba"
         offset="0"
         id="stop920" />
      <stop
         style="stop-opacity:1;stop-color:#ff928e"
         offset="1"
         id="stop922" />
    </linearGradient>
    <linearGradient
       x1="0"
       y1="0"
       x2="1"
       y2="0"
       gradientUnits="userSpaceOnUse"
       gradientTransform="matrix(-317.975,-274.671,274.671,-317.975,1530.6801,1946.9501)"
       spreadMethod="pad"
       id="linearGradient942">
      <stop
         style="stop-opacity:1;stop-color:#febbba"
         offset="0"
         id="stop938" />
      <stop
         style="stop-opacity:1;stop-color:#ff928e"
         offset="1"
         id="stop940" />
    </linearGradient>
    <linearGradient
       x1="0"
       y1="0"
       x2="1"
       y2="0"
       gradientUnits="userSpaceOnUse"
       gradientTransform="matrix(-326.659,-282.173,282.173,-326.659,1535.96,1959.2601)"
       spreadMethod="pad"
       id="linearGradient960">
      <stop
         style="stop-opacity:1;stop-color:#febbba"
         offset="0"
         id="stop956" />
      <stop
         style="stop-opacity:1;stop-color:#ff928e"
         offset="1"
         id="stop958" />
    </linearGradient>
    <linearGradient
       x1="0"
       y1="0"
       x2="1"
       y2="0"
       gradientUnits="userSpaceOnUse"
       gradientTransform="matrix(826.098,-1090.46,-1090.46,-826.098,1123.6299,2536.21)"
       spreadMethod="pad"
       id="linearGradient978">
      <stop
         style="stop-opacity:1;stop-color:#e1473d"
         offset="0"
         id="stop974" />
      <stop
         style="stop-opacity:1;stop-color:#e9605a"
         offset="1"
         id="stop976" />
    </linearGradient>
    <linearGradient
       x1="0"
       y1="0"
       x2="1"
       y2="0"
       gradientUnits="userSpaceOnUse"
       gradientTransform="matrix(-153.475,-752.701,-752.701,153.475,2007.1898,2343.23)"
       spreadMethod="pad"
       id="linearGradient996">
      <stop
         style="stop-opacity:1;stop-color:#fe7062"
         offset="0"
         id="stop992" />
      <stop
         style="stop-opacity:1;stop-color:#ff928e"
         offset="1"
         id="stop994" />
    </linearGradient>
    <linearGradient
       x1="0"
       y1="0"
       x2="1"
       y2="0"
       gradientUnits="userSpaceOnUse"
       gradientTransform="matrix(1295.42,-96.8524,-96.8524,-1295.42,1213.5798,1987.1301)"
       spreadMethod="pad"
       id="linearGradient1014">
      <stop
         style="stop-opacity:1;stop-color:#ff9085"
         offset="0"
         id="stop1010" />
      <stop
         style="stop-opacity:1;stop-color:#fb6fbb"
         offset="1"
         id="stop1012" />
    </linearGradient>
    <linearGradient
       x1="0"
       y1="0"
       x2="1"
       y2="0"
       gradientUnits="userSpaceOnUse"
       gradientTransform="matrix(313.341,796.687,796.687,-313.341,1802.6899,2036.3002)"
       spreadMethod="pad"
       id="linearGradient1032">
      <stop
         style="stop-opacity:1;stop-color:#fe7062"
         offset="0"
         id="stop1028" />
      <stop
         style="stop-opacity:1;stop-color:#ff928e"
         offset="1"
         id="stop1030" />
    </linearGradient>
    <linearGradient
       x1="0"
       y1="0"
       x2="1"
       y2="0"
       gradientUnits="userSpaceOnUse"
       gradientTransform="matrix(-53.3348,-103.336,-103.336,53.3348,1975.29,2883.9092)"
       spreadMethod="pad"
       id="linearGradient1050">
      <stop
         style="stop-opacity:1;stop-color:#fe7062"
         offset="0"
         id="stop1046" />
      <stop
         style="stop-opacity:1;stop-color:#ff928e"
         offset="1"
         id="stop1048" />
    </linearGradient>
    <linearGradient
       x1="0"
       y1="0"
       x2="1"
       y2="0"
       gradientUnits="userSpaceOnUse"
       gradientTransform="matrix(-155.351,-774.954,-774.954,155.351,1329.01,1727.75)"
       spreadMethod="pad"
       id="linearGradient1068">
      <stop
         style="stop-opacity:1;stop-color:#febbba"
         offset="0"
         id="stop1064" />
      <stop
         style="stop-opacity:1;stop-color:#ff928e"
         offset="1"
         id="stop1066" />
    </linearGradient>
    <linearGradient
       x1="0"
       y1="0"
       x2="1"
       y2="0"
       gradientUnits="userSpaceOnUse"
       gradientTransform="matrix(-2446.53,3038.4399,3038.4399,2446.53,3573.9199,-319.5298)"
       spreadMethod="pad"
       id="linearGradient1088">
      <stop
         style="stop-opacity:1;stop-color:#c4d5fd"
         offset="0"
         id="stop1084" />
      <stop
         style="stop-opacity:1;stop-color:#ceddfc"
         offset="1"
         id="stop1086" />
    </linearGradient>
    <linearGradient
       x1="0"
       y1="0"
       x2="1"
       y2="0"
       gradientUnits="userSpaceOnUse"
       gradientTransform="matrix(-2446.53,3038.4399,3038.4399,2446.53,3573.9199,-319.5298)"
       spreadMethod="pad"
       id="linearGradient1106">
      <stop
         style="stop-opacity:1;stop-color:#c4d5fd"
         offset="0"
         id="stop1102" />
      <stop
         style="stop-opacity:1;stop-color:#ceddfc"
         offset="1"
         id="stop1104" />
    </linearGradient>
    <linearGradient
       x1="0"
       y1="0"
       x2="1"
       y2="0"
       gradientUnits="userSpaceOnUse"
       gradientTransform="matrix(-604.109,-3523.96,-3523.96,604.109,2741.29,4500.1851)"
       spreadMethod="pad"
       id="linearGradient1124">
      <stop
         style="stop-opacity:1;stop-color:#5864e9"
         offset="0"
         id="stop1120" />
      <stop
         style="stop-opacity:1;stop-color:#636ffd"
         offset="1"
         id="stop1122" />
    </linearGradient>
    <linearGradient
       x1="0"
       y1="0"
       x2="1"
       y2="0"
       gradientUnits="userSpaceOnUse"
       gradientTransform="matrix(324.993,749.983,749.983,-324.993,2329.2998,2765.76)"
       spreadMethod="pad"
       id="linearGradient1142">
      <stop
         style="stop-opacity:1;stop-color:#32368c"
         offset="0"
         id="stop1138" />
      <stop
         style="stop-opacity:1;stop-color:#3e41b1"
         offset="1"
         id="stop1140" />
    </linearGradient>
    <linearGradient
       x1="0"
       y1="0"
       x2="1"
       y2="0"
       gradientUnits="userSpaceOnUse"
       gradientTransform="matrix(-604.109,-3523.96,-3523.96,604.109,2741.29,4500.1851)"
       spreadMethod="pad"
       id="linearGradient1160">
      <stop
         style="stop-opacity:1;stop-color:#5864e9"
         offset="0"
         id="stop1156" />
      <stop
         style="stop-opacity:1;stop-color:#636ffd"
         offset="1"
         id="stop1158" />
    </linearGradient>
    <linearGradient
       x1="0"
       y1="0"
       x2="1"
       y2="0"
       gradientUnits="userSpaceOnUse"
       gradientTransform="matrix(324.993,749.983,749.983,-324.993,2329.2998,2765.76)"
       spreadMethod="pad"
       id="linearGradient1178">
      <stop
         style="stop-opacity:1;stop-color:#32368c"
         offset="0"
         id="stop1174" />
      <stop
         style="stop-opacity:1;stop-color:#3e41b1"
         offset="1"
         id="stop1176" />
    </linearGradient>
    <linearGradient
       x1="0"
       y1="0"
       x2="1"
       y2="0"
       gradientUnits="userSpaceOnUse"
       gradientTransform="matrix(-604.109,-3523.96,-3523.96,604.109,2741.29,4500.1851)"
       spreadMethod="pad"
       id="linearGradient1196">
      <stop
         style="stop-opacity:1;stop-color:#5864e9"
         offset="0"
         id="stop1192" />
      <stop
         style="stop-opacity:1;stop-color:#636ffd"
         offset="1"
         id="stop1194" />
    </linearGradient>
    <linearGradient
       x1="0"
       y1="0"
       x2="1"
       y2="0"
       gradientUnits="userSpaceOnUse"
       gradientTransform="matrix(-2446.53,3038.4399,3038.4399,2446.53,3573.9199,-319.5298)"
       spreadMethod="pad"
       id="linearGradient1214">
      <stop
         style="stop-opacity:1;stop-color:#c4d5fd"
         offset="0"
         id="stop1210" />
      <stop
         style="stop-opacity:1;stop-color:#ceddfc"
         offset="1"
         id="stop1212" />
    </linearGradient>
    <linearGradient
       x1="0"
       y1="0"
       x2="1"
       y2="0"
       gradientUnits="userSpaceOnUse"
       gradientTransform="matrix(-604.109,-3523.96,-3523.96,604.109,2741.29,4500.1851)"
       spreadMethod="pad"
       id="linearGradient1232">
      <stop
         style="stop-opacity:1;stop-color:#5864e9"
         offset="0"
         id="stop1228" />
      <stop
         style="stop-opacity:1;stop-color:#636ffd"
         offset="1"
         id="stop1230" />
    </linearGradient>
    <linearGradient
       x1="0"
       y1="0"
       x2="1"
       y2="0"
       gradientUnits="userSpaceOnUse"
       gradientTransform="matrix(-2446.53,3038.4399,3038.4399,2446.53,3573.9199,-319.5298)"
       spreadMethod="pad"
       id="linearGradient1250">
      <stop
         style="stop-opacity:1;stop-color:#c4d5fd"
         offset="0"
         id="stop1246" />
      <stop
         style="stop-opacity:1;stop-color:#ceddfc"
         offset="1"
         id="stop1248" />
    </linearGradient>
    <linearGradient
       x1="0"
       y1="0"
       x2="1"
       y2="0"
       gradientUnits="userSpaceOnUse"
       gradientTransform="matrix(-604.109,-3523.96,-3523.96,604.109,2741.29,4500.1851)"
       spreadMethod="pad"
       id="linearGradient1268">
      <stop
         style="stop-opacity:1;stop-color:#5864e9"
         offset="0"
         id="stop1264" />
      <stop
         style="stop-opacity:1;stop-color:#636ffd"
         offset="1"
         id="stop1266" />
    </linearGradient>
    <linearGradient
       x1="0"
       y1="0"
       x2="1"
       y2="0"
       gradientUnits="userSpaceOnUse"
       gradientTransform="matrix(-604.109,-3523.96,-3523.96,604.109,2741.29,4500.1851)"
       spreadMethod="pad"
       id="linearGradient1296">
      <stop
         style="stop-opacity:1;stop-color:#5864e9"
         offset="0"
         id="stop1292" />
      <stop
         style="stop-opacity:1;stop-color:#636ffd"
         offset="1"
         id="stop1294" />
    </linearGradient>
    <linearGradient
       x1="0"
       y1="0"
       x2="1"
       y2="0"
       gradientUnits="userSpaceOnUse"
       gradientTransform="matrix(-2446.53,3038.4399,3038.4399,2446.53,3573.9199,-319.5298)"
       spreadMethod="pad"
       id="linearGradient1316">
      <stop
         style="stop-opacity:1;stop-color:#c4d5fd"
         offset="0"
         id="stop1312" />
      <stop
         style="stop-opacity:1;stop-color:#ceddfc"
         offset="1"
         id="stop1314" />
    </linearGradient>
    <linearGradient
       x1="0"
       y1="0"
       x2="1"
       y2="0"
       gradientUnits="userSpaceOnUse"
       gradientTransform="matrix(-604.109,-3523.96,-3523.96,604.109,2741.29,4500.1851)"
       spreadMethod="pad"
       id="linearGradient1334">
      <stop
         style="stop-opacity:1;stop-color:#5864e9"
         offset="0"
         id="stop1330" />
      <stop
         style="stop-opacity:1;stop-color:#636ffd"
         offset="1"
         id="stop1332" />
    </linearGradient>
  </defs>
  <g
     id="g10"
     transform="matrix(1.3333333,0,0,-1.3333333,0,4946.6667)">
    <g
       id="g12">
      <g
         id="g14"
         clip-path="url(#clipPath18)">
        <path
           d="M 0.06,3710 H 3710 V 0 H 0.06 Z"
           style="fill:#ffffff;fill-opacity:1;fill-rule:nonzero;stroke:none"
           id="path20" />
      </g>
    </g>
    <g
       id="g22">
      <g
         id="g24">
        <g
           id="g30">
          <path
             d="m 506.374,1407.45 c -57.611,234.3 -48.069,487.44 13.595,723.51 14.007,-39.65 31.919,-76.42 52.86,-109.69 9.682,-15.38 18.615,-31.15 26.778,-47.26 h -44.963 c -19.393,0 -35.215,-12.67 -35.579,-28.08 l -12.691,-538.48 m 2720.036,525.64 c -7.1,4.68 -16.19,7.59 -25.37,7.59 h -116.79 v 463.81 c 0.21,0.07 0.41,0.14 0.62,0.23 9.7,4.25 19.24,9.15 28.34,14.55 0.1,0.06 0.21,0.13 0.31,0.2 64.11,-155.24 100.77,-321.04 112.89,-486.38 m -142.16,484.69 v 67.74 c 8.62,-18.18 16.85,-36.55 24.67,-55.06 -0.66,-0.13 -1.3,-0.37 -1.91,-0.73 -7.35,-4.35 -14.98,-8.36 -22.76,-11.95 m -1921.19,72.5 h -98.08 c -75.076,109.16 -183.591,176.4 -291.026,177.49 63.89,88.869 173.805,221.895 334.826,336.491 -23.74,-73.644 -31.77,-158.248 -19.78,-246.183 6.87,-50.448 19.81,-98.068 37.63,-141.688 16.7,-40.88 28.9,-83.18 36.43,-126.11 m 1762.05,251.616 h -789.28 c -0.78,2.708 -1.54,5.422 -2.26,8.136 -1.17,4.412 -5.16,7.32 -9.52,7.32 -0.83,0 -1.68,-0.107 -2.52,-0.33 -5.25,-1.394 -8.38,-6.787 -6.99,-12.043 0.27,-1.028 0.55,-2.055 0.83,-3.083 h -340.08 c -3.17,19.706 -5.32,39.638 -6.42,59.745 -0.88,16.009 -2.41,32.181 -4.63,48.467 -21.45,157.41 -101.87,287.422 -205.69,354.308 32.96,7.124 66.99,13.027 102.04,17.537 59.18,7.614 120.03,11.463 181.65,11.463 314.12,0 649.81,-99.874 904.47,-309.874 66.82,-55.097 126.2,-116.123 178.4,-181.646 m -813.67,98.895 c -0.14,0 -0.28,0 -0.42,-0.01 -5.51,-0.122 -9.66,-4.814 -9.43,-10.244 0.12,-2.902 0.27,-5.806 0.46,-8.718 0.51,-8.042 1.27,-16.181 2.28,-24.191 0.62,-4.981 4.86,-8.625 9.75,-8.625 0.21,0 0.42,0.01 0.63,0.02 0.2,0.012 0.4,0.033 0.6,0.058 5.4,0.673 9.23,5.595 8.55,10.989 -0.95,7.616 -1.68,15.349 -2.16,22.996 -0.18,2.767 -0.32,5.533 -0.44,8.288 -0.22,5.293 -4.58,9.436 -9.82,9.436 m 3.2,67.946 c -4.86,0 -9.06,-3.576 -9.74,-8.505 -0.73,-5.325 -1.36,-10.726 -1.87,-16.045 -0.51,-5.413 3.45,-10.22 8.87,-10.74 0.31,-0.03 0.62,-0.045 0.92,-0.045 0.22,0 0.44,0.01 0.65,0.021 4.74,0.301 8.7,4.005 9.17,8.887 0.48,5.051 1.08,10.18 1.77,15.237 0.74,5.389 -3.02,10.356 -8.41,11.097 -0.46,0.063 -0.91,0.093 -1.36,0.093 m 154.25,257.519 c -2.02,0 -4.05,-0.616 -5.8,-1.898 -4.34,-3.166 -8.66,-6.454 -12.84,-9.775 -4.26,-3.38 -4.97,-9.575 -1.59,-13.831 1.94,-2.45 4.82,-3.725 7.72,-3.725 0.2,0 0.41,0.01 0.62,0.02 1.94,0.123 3.86,0.815 5.49,2.113 3.98,3.157 8.08,6.281 12.21,9.295 4.39,3.203 5.35,9.365 2.15,13.755 -1.93,2.643 -4.92,4.046 -7.96,4.046"
             style="fill:url(#linearGradient36);stroke:none"
             id="path38" />
        </g>
      </g>
    </g>
    <path
       d="m 996.653,2466.24 c 0.257,13.32 11.457,24.04 25.177,24.04 h 832.25 c 13.91,0 28.68,-11.05 28.68,-24.55 V 579.38 c 0,-10.08 -5.88,-19.75 -13.23,-26.87 -7.35,-7.11 -18.19,-11.1 -28.57,-11.07 l -841.369,2.23 c -10.47,0.03 -20.708,4.13 -28.032,11.4 -7.323,7.27 -11.446,17.11 -11.25,27.28 l 36.344,1883.89"
       style="fill:#bdd0fb;fill-opacity:1;fill-rule:nonzero;stroke:none"
       id="path40" />
    <path
       d="m 1132.06,2355.45 c -3.82,11.31 -7.95,22.37 -12.39,33.22 l 52.43,0.16 c 0.03,-11.09 -0.25,-22.18 -0.84,-33.25 l -39.2,-0.13"
       style="fill:#dfe9fd;fill-opacity:1;fill-rule:nonzero;stroke:none"
       id="path42" />
    <path
       d="m 1158.33,2261.24 c -0.59,1.87 -1.17,3.75 -1.73,5.63 l 2.96,0.01 c -0.4,-1.88 -0.82,-3.77 -1.23,-5.64"
       style="fill:#dfe9fd;fill-opacity:1;fill-rule:nonzero;stroke:none"
       id="path44" />
    <path
       d="m 519.065,1945.93 c 0.364,15.41 16.186,28.08 35.579,28.08 h 733.016 c 19.65,0 38.95,-13.34 38.95,-28.95 V 549.15 c 0,-7.51 -5.44,-14.72 -12.14,-20.02 -6.69,-5.31 -16.61,-8.28 -26.07,-8.26 l -766.403,1.66 c -9.537,0.02 -18.874,3.09 -25.544,8.5 -6.671,5.42 -10.431,12.91 -10.253,20.48 l 32.865,1394.42"
       style="fill:#bdd0fb;fill-opacity:1;fill-rule:nonzero;stroke:none"
       id="path46" />
    <g
       id="g48">
      <g
         id="g50">
        <g
           id="g56">
          <path
             d="m 1058.89,1809.52 208.82,0.23 1.66,85.05 h -209.02 l -1.46,-85.28"
             style="fill:url(#linearGradient62);stroke:none"
             id="path64" />
        </g>
      </g>
    </g>
    <g
       id="g66">
      <g
         id="g68">
        <g
           id="g74">
          <path
             d="m 824.828,1809.57 208.612,0.22 1.43,85.01 H 826.055 l -1.227,-85.23"
             style="fill:url(#linearGradient80);stroke:none"
             id="path82" />
        </g>
      </g>
    </g>
    <g
       id="g84">
      <g
         id="g86">
        <g
           id="g92">
          <path
             d="m 591,1809.61 208.401,0.22 1.202,84.97 H 592.001 L 591,1809.61"
             style="fill:url(#linearGradient98);stroke:none"
             id="path100" />
        </g>
      </g>
    </g>
    <g
       id="g102">
      <g
         id="g104">
        <g
           id="g110">
          <path
             d="m 1056.28,1656.85 208.46,-0.11 1.65,84.5 -208.66,0.07 -1.45,-84.46"
             style="fill:url(#linearGradient116);stroke:none"
             id="path118" />
        </g>
      </g>
    </g>
    <g
       id="g120">
      <g
         id="g122">
        <g
           id="g128">
          <path
             d="m 822.626,1656.97 208.244,-0.11 1.43,84.46 -208.451,0.07 -1.223,-84.42"
             style="fill:url(#linearGradient134);stroke:none"
             id="path136" />
        </g>
      </g>
    </g>
    <g
       id="g138">
      <g
         id="g140">
        <g
           id="g146">
          <path
             d="m 589.205,1657.09 208.038,-0.11 1.198,84.42 -208.239,0.07 -0.997,-84.38"
             style="fill:url(#linearGradient152);stroke:none"
             id="path154" />
        </g>
      </g>
    </g>
    <g
       id="g156">
      <g
         id="g158">
        <g
           id="g164">
          <path
             d="m 1053.68,1505.22 208.09,-0.17 1.65,84.21 -208.3,0.14 -1.44,-84.18"
             style="fill:url(#linearGradient170);stroke:none"
             id="path172" />
        </g>
      </g>
    </g>
    <g
       id="g174">
      <g
         id="g176">
        <g
           id="g182">
          <path
             d="m 820.432,1505.42 207.888,-0.17 1.42,84.16 -208.09,0.14 -1.218,-84.13"
             style="fill:url(#linearGradient188);stroke:none"
             id="path190" />
        </g>
      </g>
    </g>
    <g
       id="g192">
      <g
         id="g194">
        <g
           id="g200">
          <path
             d="m 587.417,1505.61 207.676,-0.17 1.193,84.13 -207.876,0.13 -0.993,-84.09"
             style="fill:url(#linearGradient206);stroke:none"
             id="path208" />
        </g>
      </g>
    </g>
    <g
       id="g210">
      <g
         id="g212">
        <g
           id="g218">
          <path
             d="m 1051.09,1354.13 207.73,-0.24 1.64,83.91 -207.93,0.2 -1.44,-83.87"
             style="fill:url(#linearGradient224);stroke:none"
             id="path226" />
        </g>
      </g>
    </g>
    <g
       id="g228">
      <g
         id="g230">
        <g
           id="g236">
          <path
             d="m 818.245,1354.39 207.525,-0.23 1.41,83.87 -207.721,0.2 -1.214,-83.84"
             style="fill:url(#linearGradient242);stroke:none"
             id="path244" />
        </g>
      </g>
    </g>
    <g
       id="g246">
      <g
         id="g248">
        <g
           id="g254">
          <path
             d="m 585.634,1354.67 207.316,-0.25 1.19,83.84 -207.517,0.2 -0.989,-83.79"
             style="fill:url(#linearGradient260);stroke:none"
             id="path262" />
        </g>
      </g>
    </g>
    <g
       id="g264">
      <g
         id="g266">
        <g
           id="g272">
          <path
             d="m 1048.51,1203.55 207.37,-0.31 1.63,83.63 -207.57,0.27 -1.43,-83.59"
             style="fill:url(#linearGradient278);stroke:none"
             id="path280" />
        </g>
      </g>
    </g>
    <g
       id="g282">
      <g
         id="g284">
        <g
           id="g290">
          <path
             d="m 816.066,1203.89 207.164,-0.31 1.41,83.59 -207.364,0.27 -1.21,-83.55"
             style="fill:url(#linearGradient296);stroke:none"
             id="path298" />
        </g>
      </g>
    </g>
    <g
       id="g300">
      <g
         id="g302">
        <g
           id="g308">
          <path
             d="m 583.857,1204.24 206.958,-0.31 1.185,83.54 -207.157,0.27 -0.986,-83.5"
             style="fill:url(#linearGradient314);stroke:none"
             id="path316" />
        </g>
      </g>
    </g>
    <g
       id="g318">
      <g
         id="g320">
        <g
           id="g326">
          <path
             d="m 1045.93,1053.49 207.02,-0.37 1.62,83.33 -207.21,0.34 -1.43,-83.3"
             style="fill:url(#linearGradient332);stroke:none"
             id="path334" />
        </g>
      </g>
    </g>
    <g
       id="g336">
      <g
         id="g338">
        <g
           id="g344">
          <path
             d="m 813.894,1053.91 206.806,-0.37 1.41,83.29 -207.01,0.34 -1.206,-83.26"
             style="fill:url(#linearGradient350);stroke:none"
             id="path352" />
        </g>
      </g>
    </g>
    <g
       id="g354">
      <g
         id="g356">
        <g
           id="g362">
          <path
             d="m 582.087,1054.33 206.6,-0.38 1.181,83.26 -206.798,0.34 -0.983,-83.22"
             style="fill:url(#linearGradient368);stroke:none"
             id="path370" />
        </g>
      </g>
    </g>
    <g
       id="g372">
      <g
         id="g374">
        <g
           id="g380">
          <path
             d="m 1043.37,903.95 206.65,-0.44 1.63,83.05 -206.86,0.4 -1.42,-83.01"
             style="fill:url(#linearGradient386);stroke:none"
             id="path388" />
        </g>
      </g>
    </g>
    <g
       id="g390">
      <g
         id="g392">
        <g
           id="g398">
          <path
             d="m 811.73,904.44 206.45,-0.44 1.4,83.01 -206.649,0.41 -1.201,-82.98"
             style="fill:url(#linearGradient404);stroke:none"
             id="path406" />
        </g>
      </g>
    </g>
    <g
       id="g408">
      <g
         id="g410">
        <g
           id="g416">
          <path
             d="m 580.322,904.93 206.244,-0.44 1.178,82.97 -206.442,0.41 -0.98,-82.94"
             style="fill:url(#linearGradient422);stroke:none"
             id="path424" />
        </g>
      </g>
    </g>
    <g
       id="g426">
      <g
         id="g428">
        <g
           id="g434">
          <path
             d="m 1040.81,754.92 206.3,-0.5 1.62,82.76 -206.5,0.47 -1.42,-82.73"
             style="fill:url(#linearGradient440);stroke:none"
             id="path442" />
        </g>
      </g>
    </g>
    <g
       id="g444">
      <g
         id="g446">
        <g
           id="g452">
          <path
             d="m 809.574,755.49 206.096,-0.51 1.39,82.73 -206.289,0.46 -1.197,-82.68"
             style="fill:url(#linearGradient458);stroke:none"
             id="path460" />
        </g>
      </g>
    </g>
    <g
       id="g462">
      <g
         id="g464">
        <g
           id="g470">
          <path
             d="m 578.563,756.05 205.89,-0.5 1.172,82.68 -206.085,0.47 -0.977,-82.65"
             style="fill:url(#linearGradient476);stroke:none"
             id="path478" />
        </g>
      </g>
    </g>
    <g
       id="g480">
      <g
         id="g482">
        <g
           id="g488">
          <path
             d="m 1038.27,606.4 205.94,-0.57 1.61,82.49 -206.14,0.53 -1.41,-82.45"
             style="fill:url(#linearGradient494);stroke:none"
             id="path496" />
        </g>
      </g>
    </g>
    <g
       id="g498">
      <g
         id="g500">
        <g
           id="g506">
          <path
             d="m 807.424,607.04 205.736,-0.57 1.39,82.45 -205.933,0.53 -1.193,-82.41"
             style="fill:url(#linearGradient512);stroke:none"
             id="path514" />
        </g>
      </g>
    </g>
    <g
       id="g516">
      <g
         id="g518">
        <g
           id="g524">
          <path
             d="m 576.812,607.68 205.534,-0.57 1.17,82.4 -205.732,0.54 -0.972,-82.37"
             style="fill:url(#linearGradient530);stroke:none"
             id="path532" />
        </g>
      </g>
    </g>
    <path
       d="m 2432.45,1912.59 c 0.36,15.41 16.19,28.09 35.58,28.09 h 733.01 c 19.66,0 38.96,-13.34 38.96,-28.96 V 515.81 c 0,-7.51 -5.45,-14.71 -12.14,-20.02 -6.7,-5.3 -16.62,-8.27 -26.07,-8.25 l -766.41,1.66 c -9.54,0.02 -18.87,3.08 -25.54,8.5 -6.67,5.41 -10.43,12.9 -10.26,20.48 l 32.87,1394.41"
       style="fill:#bdd0fb;fill-opacity:1;fill-rule:nonzero;stroke:none"
       id="path534" />
    <path
       d="m 3084.25,1776.31 v 85.16 h 98.5 l -1.65,-85.06 -96.85,-0.1"
       style="fill:#dee8fd;fill-opacity:1;fill-rule:nonzero;stroke:none"
       id="path536" />
    <path
       d="m 3178.12,1623.41 -93.87,0.05 v 84.48 l 95.52,-0.03 -1.65,-84.5"
       style="fill:#dee8fd;fill-opacity:1;fill-rule:nonzero;stroke:none"
       id="path538" />
    <path
       d="m 3175.16,1471.72 -90.91,0.07 v 84.2 l 92.55,-0.06 -1.64,-84.21"
       style="fill:#dee8fd;fill-opacity:1;fill-rule:nonzero;stroke:none"
       id="path540" />
    <path
       d="m 3172.21,1320.55 -87.96,0.1 v 83.91 l 89.59,-0.09 -1.63,-83.92"
       style="fill:#dee8fd;fill-opacity:1;fill-rule:nonzero;stroke:none"
       id="path542" />
    <path
       d="m 3169.26,1169.91 -85.01,0.12 v 83.62 l 86.65,-0.12 -1.64,-83.62"
       style="fill:#dee8fd;fill-opacity:1;fill-rule:nonzero;stroke:none"
       id="path544" />
    <path
       d="m 3166.33,1019.78 -82.08,0.15 v 83.33 l 83.71,-0.14 -1.63,-83.34"
       style="fill:#dee8fd;fill-opacity:1;fill-rule:nonzero;stroke:none"
       id="path546" />
    <path
       d="m 3163.41,870.18 -79.16,0.16 v 83.04 l 80.78,-0.15 -1.62,-83.05"
       style="fill:#dee8fd;fill-opacity:1;fill-rule:nonzero;stroke:none"
       id="path548" />
    <path
       d="m 3160.5,721.08 -76.25,0.19 v 82.75 l 77.86,-0.17 -1.61,-82.77"
       style="fill:#dee8fd;fill-opacity:1;fill-rule:nonzero;stroke:none"
       id="path550" />
    <path
       d="m 3157.59,572.5 -73.34,0.2 v 82.48 l 74.95,-0.2 -1.61,-82.48"
       style="fill:#dee8fd;fill-opacity:1;fill-rule:nonzero;stroke:none"
       id="path552" />
    <path
       d="m 1703.74,1532.86 c -59.82,187.83 -175.56,337.52 -312.67,425.51 -122.56,78.67 -210.87,201.18 -243.56,342.7 -3.44,14.87 -7.52,29.79 -12.27,44.7 -71.95,225.9 -269.286,364.744 -440.766,310.13 -171.482,-54.62 -252.169,-282.02 -180.221,-507.91 14.71,-46.19 34.668,-88.73 58.576,-126.72 76.302,-121.23 106.16,-266.63 78.086,-407.27 -25.093,-125.68 -18.285,-267.19 26.566,-408.01 66.892,-210.02 203.704,-372.37 362.119,-454.1 59.92,-30.91 113.95,-72.48 158.69,-122.72 74.35,-83.47 179.14,-122.71 275.41,-92.05 103.86,33.08 168.74,138.25 173.41,260.96 2.65,69.43 18.97,137.49 45.58,201.83 62.83,151.9 71.54,343.05 11.05,532.95"
       style="fill:#91b3fa;fill-opacity:1;fill-rule:nonzero;stroke:none"
       id="path554" />
    <path
       d="m 1410.53,965.92 c -3.91,11.59 -7.94,23.15 -11.81,34.76 -12.78,37.42 -25.26,74.93 -38.28,112.26 -22.08,62.03 -44.51,123.93 -67.36,185.68 10,-10.97 20.25,-21.51 30.77,-31.64 4.39,-12.15 8.71,-24.32 12.87,-36.55 l 38.78,-112.32 c 11.91,-35.66 23.6,-71.38 35.03,-107.2 v -44.99 m -329.88,872.21 -20.49,48.94 c -15.25,36.5 -30.5,72.99 -46.12,109.33 -30.618,72.95 -61.763,145.68 -93.504,218.15 -31.36,72.64 -63.413,145 -95.679,217.23 l 6.201,2.93 c 69.952,-142.15 135.258,-286.45 199.052,-431.42 15.96,-36.24 31.34,-72.73 46.83,-109.17 l 2.81,-6.6 c -0.15,-16.35 0.15,-32.8 0.9,-49.39"
       style="fill:#d0defd;fill-opacity:1;fill-rule:nonzero;stroke:none"
       id="path556" />
    <path
       d="m 2204.2,1906.21 c -27.96,205.12 -120.37,380.94 -245.84,496.81 -112.17,103.59 -181.18,246.32 -189.49,398.621 -0.88,16.009 -2.41,32.181 -4.63,48.467 -33.62,246.701 -212.04,426.091 -398.5,400.676 -186.46,-25.413 -310.36,-246.006 -276.74,-492.706 6.87,-50.448 19.81,-98.068 37.63,-141.688 56.87,-139.23 61.57,-295.05 7.43,-435.43 -48.39,-125.45 -66.74,-273.06 -45.78,-426.85 31.26,-229.36 143.1,-422.09 291.66,-535.35 56.19,-42.83 104.4,-95.63 141.49,-155.7 61.64,-99.82 162.56,-159.4 267.24,-145.13 112.93,15.39 198.64,112.41 225.45,238.49 15.17,71.35 44.19,138.79 83.15,200.52 91.95,145.73 135.2,341.87 106.93,549.27"
       style="fill:#7d97f4;fill-opacity:1;fill-rule:nonzero;stroke:none"
       id="path558" />
    <path
       d="m 1537.12,2741.896 h -14.83 c -0.93,3.799 -1.85,7.596 -2.78,11.394 -19.28,80.822 -39.33,161.482 -59.62,242.042 l 6.91,1.909 c 24.72,-84.775 47.99,-169.939 70.32,-255.345"
       style="fill:#c7d2fa;fill-opacity:1;fill-rule:nonzero;stroke:none"
       id="path560" />
    <g
       id="g562">
      <g
         id="g564">
        <g
           id="g570">
          <path
             d="M 3061.22,496.34 H 1433.57 c -12.73,0 -23.04,10.31 -23.04,23.03 v 2199.493 c 0,12.721 10.31,23.033 23.04,23.033 h 681.8 c 2.63,-9.58 5.65,-19.136 8.98,-28.45 1.44,-4.026 5.23,-6.536 9.27,-6.536 0.21,0 0.41,0.01 0.62,0.02 0.9,0.06 1.81,0.25 2.7,0.56 5.12,1.84 7.78,7.473 5.95,12.591 -2.56,7.159 -4.93,14.465 -7.06,21.815 h 925.39 c 12.72,0 23.03,-10.312 23.03,-23.033 V 2417.78 c -1.42,-0.65 -2.84,-1.29 -4.27,-1.92 -3.07,-1.35 -4.47,-4.94 -3.13,-8.01 1,-2.28 3.24,-3.64 5.58,-3.64 0.12,0 0.25,0 0.38,0.01 0.48,0.03 0.97,0.12 1.44,0.27 V 519.37 c 0,-12.72 -10.31,-23.03 -23.03,-23.03 m -100.28,1899.08 c -3.17,0 -5.88,-2.43 -6.11,-5.65 -0.24,-3.35 2.29,-6.26 5.63,-6.5 6.16,-0.43 12.38,-0.65 18.59,-0.65 4.42,0 8.85,0.11 13.25,0.33 l 0.08,0.01 c 3.31,0.21 5.85,3.05 5.68,6.37 -0.16,3.25 -2.84,5.78 -6.06,5.78 -0.1,0 -0.21,0 -0.31,-0.01 -4.21,-0.21 -8.44,-0.32 -12.67,-0.32 -5.92,0 -11.84,0.21 -17.69,0.62 -0.13,0.01 -0.26,0.02 -0.39,0.02 m 92.26,10.22 c -0.57,0 -1.15,-0.08 -1.73,-0.25 -9.67,-2.89 -19.62,-5.22 -29.58,-6.94 -3.31,-0.57 -5.53,-3.71 -4.96,-7.02 0.51,-2.96 3.08,-5.05 5.98,-5.05 0.13,0 0.26,0 0.39,0.01 0.22,0.01 0.43,0.04 0.65,0.08 10.44,1.79 20.87,4.24 31.01,7.27 3.21,0.96 5.04,4.35 4.08,7.56 -0.79,2.65 -3.22,4.34 -5.84,4.34 m -153.25,1.69 c -2.57,0 -4.95,-1.63 -5.78,-4.2 -1.04,-3.19 0.7,-6.62 3.9,-7.66 10.04,-3.28 20.41,-5.97 30.82,-8.01 0.39,-0.08 0.79,-0.11 1.17,-0.11 0.13,0 0.26,0 0.38,0.01 2.7,0.17 5.04,2.13 5.58,4.9 0.65,3.29 -1.5,6.48 -4.79,7.13 -9.93,1.95 -19.82,4.52 -29.4,7.64 -0.62,0.2 -1.26,0.3 -1.88,0.3 m -56.24,26.25 c -2.03,0 -4.02,-1.02 -5.17,-2.86 -1.78,-2.86 -0.91,-6.61 1.94,-8.38 8.98,-5.61 18.4,-10.71 27.99,-15.19 0.83,-0.38 1.7,-0.57 2.56,-0.57 0.13,0 0.26,0.01 0.39,0.02 2.14,0.13 4.16,1.41 5.13,3.49 1.42,3.05 0.1,6.67 -2.94,8.09 -9.15,4.26 -18.12,9.13 -26.69,14.48 -1,0.62 -2.12,0.92 -3.21,0.92 m -48.38,38.95 c -1.53,0 -3.06,-0.58 -4.24,-1.73 -2.4,-2.34 -2.45,-6.19 -0.11,-8.59 7.37,-7.57 15.29,-14.79 23.55,-21.44 1.12,-0.9 2.47,-1.35 3.81,-1.35 0.13,0 0.25,0.01 0.38,0.02 1.65,0.1 3.24,0.87 4.36,2.25 2.1,2.61 1.69,6.44 -0.92,8.55 -7.88,6.35 -15.44,13.23 -22.47,20.45 -1.19,1.22 -2.77,1.84 -4.36,1.84 m -263.6,2.08 c -0.33,0 -0.66,-0.01 -0.99,-0.05 -10.48,-1.02 -20.99,-1.61 -31.34,-1.76 -5.44,-0.09 -9.78,-4.55 -9.7,-9.98 0.07,-5.39 4.47,-9.71 9.83,-9.71 0.05,0 0.1,0 0.15,0 6.41,0.09 12.92,0.35 19.37,0.76 4.52,0.28 9.06,0.65 13.6,1.09 5.41,0.53 9.37,5.34 8.85,10.76 -0.5,5.08 -4.79,8.89 -9.77,8.89 m -116.18,6.31 c -4.56,0 -8.66,-3.18 -9.63,-7.81 -1.12,-5.33 2.28,-10.55 7.61,-11.67 10.75,-2.26 21.71,-4.08 32.58,-5.42 0.41,-0.05 0.81,-0.08 1.21,-0.08 0.21,0 0.42,0.01 0.63,0.02 4.63,0.3 8.55,3.85 9.14,8.62 0.66,5.4 -3.17,10.31 -8.57,10.98 -10.32,1.27 -20.73,3 -30.94,5.15 -0.68,0.15 -1.36,0.21 -2.03,0.21 m 198.77,11.02 c -1.01,0 -2.05,-0.16 -3.07,-0.5 -9.89,-3.24 -20.05,-6.1 -30.21,-8.51 -5.29,-1.26 -8.56,-6.56 -7.31,-11.85 1.07,-4.53 5.11,-7.58 9.57,-7.58 0.21,0 0.41,0.01 0.62,0.02 0.55,0.04 1.11,0.12 1.66,0.25 10.69,2.53 21.39,5.55 31.8,8.96 5.17,1.69 7.99,7.25 6.29,12.42 -1.35,4.14 -5.21,6.79 -9.35,6.79 m -278.86,15.37 c -3.74,0 -7.31,-2.13 -8.96,-5.75 -2.26,-4.95 -0.09,-10.79 4.86,-13.05 9.99,-4.56 20.28,-8.76 30.58,-12.45 1.1,-0.4 2.23,-0.59 3.33,-0.59 0.21,0 0.42,0.01 0.62,0.02 3.8,0.25 7.28,2.69 8.65,6.51 1.83,5.12 -0.83,10.75 -5.95,12.59 -9.78,3.51 -19.55,7.49 -29.05,11.83 -1.32,0.61 -2.71,0.89 -4.08,0.89 m 422.24,14.65 c -1.04,0 -2.09,-0.27 -3.06,-0.83 -2.9,-1.69 -3.87,-5.42 -2.18,-8.32 5.33,-9.12 11.3,-18.03 17.72,-26.47 1.2,-1.57 3.01,-2.4 4.85,-2.4 0.12,0 0.25,0.01 0.38,0.02 1.16,0.07 2.31,0.47 3.3,1.23 2.67,2.03 3.19,5.85 1.15,8.52 -6.13,8.04 -11.82,16.54 -16.9,25.24 -1.13,1.93 -3.17,3.01 -5.26,3.01 m -66.59,4.97 c -1.71,0 -3.46,-0.45 -5.04,-1.39 -8.94,-5.35 -18.22,-10.37 -27.59,-14.95 -4.89,-2.38 -6.91,-8.28 -4.53,-13.16 1.71,-3.5 5.21,-5.53 8.86,-5.53 0.2,0 0.41,0 0.62,0.02 1.25,0.08 2.5,0.4 3.69,0.98 9.86,4.81 19.64,10.11 29.05,15.74 4.67,2.79 6.19,8.83 3.4,13.49 -1.84,3.09 -5.11,4.8 -8.46,4.8 m -423.64,-1.64 c 5.49,-3.88 11.09,-7.64 16.74,-11.22 1.64,-1.04 3.46,-1.53 5.27,-1.53 0.2,0 0.41,0.01 0.62,0.02 3.04,0.19 5.94,1.79 7.7,4.55 2.91,4.6 1.55,10.68 -3.05,13.59 -3.85,2.44 -7.67,4.96 -11.45,7.56 6.95,8.59 11.11,19.54 11.11,31.45 0,27.65 -22.41,50.07 -50.07,50.07 -13.74,0 -26.18,-5.53 -35.23,-14.49 -1.94,2.2 -4.65,3.33 -7.38,3.33 -2.25,0 -4.51,-0.76 -6.36,-2.33 -4.15,-3.52 -4.66,-9.73 -1.15,-13.88 1.19,-1.4 2.38,-2.79 3.59,-4.17 -2.28,-5.73 -3.54,-11.98 -3.54,-18.53 0,-27.65 22.42,-50.07 50.07,-50.07 8.35,0 16.21,2.04 23.13,5.65 m 478.87,41.76 c -2.29,0 -4.59,-0.8 -6.46,-2.43 -3.86,-3.36 -7.81,-6.67 -11.76,-9.84 -4.24,-3.4 -4.92,-9.6 -1.52,-13.84 1.94,-2.42 4.8,-3.68 7.68,-3.68 0.21,0 0.42,0 0.63,0.02 1.95,0.12 3.89,0.82 5.53,2.14 4.16,3.33 8.32,6.82 12.38,10.36 4.1,3.58 4.52,9.79 0.95,13.89 -1.95,2.23 -4.68,3.38 -7.43,3.38 m -591.75,111.61 c -1.53,0 -3.09,-0.36 -4.54,-1.12 -4.82,-2.52 -6.69,-8.47 -4.17,-13.29 5.08,-9.72 10.64,-19.35 16.53,-28.62 1.88,-2.95 5.06,-4.56 8.32,-4.56 0.21,0 0.42,0.01 0.62,0.02 1.61,0.1 3.2,0.59 4.65,1.52 4.59,2.91 5.95,8.99 3.03,13.58 -5.59,8.81 -10.87,17.95 -15.69,27.18 -1.76,3.36 -5.2,5.29 -8.75,5.29"
             style="fill:url(#linearGradient576);stroke:none"
             id="path578" />
        </g>
      </g>
    </g>
    <path
       d="M 2799.32,792.14 H 1691.9 c -41.98,0 -76.01,34.03 -76.01,76.01 v 1460.38 c 0,41.98 34.03,76.01 76.01,76.01 h 1107.42 c 41.98,0 76.01,-34.03 76.01,-76.01 V 868.15 c 0,-41.98 -34.03,-76.01 -76.01,-76.01"
       style="fill:#7d97f4;fill-opacity:1;fill-rule:nonzero;stroke:none"
       id="path580" />
    <g
       id="g582">
      <g
         id="g584">
        <g
           id="g590">
          <path
             d="M 2757.42,904.31 H 1734.8 c -12.59,0 -22.8,10.21 -22.8,22.8 V 2249.1 c 0,12.59 10.21,22.8 22.8,22.8 h 1022.62 c 12.59,0 22.8,-10.21 22.8,-22.8 V 927.11 c 0,-12.59 -10.21,-22.8 -22.8,-22.8"
             style="fill:url(#linearGradient596);stroke:none"
             id="path598" />
        </g>
      </g>
    </g>
    <g
       id="g600">
      <g
         id="g602">
        <g
           id="g608">
          <path
             d="m 2244.34,2519.64 c -27.65,0 -50.07,22.42 -50.07,50.07 0,6.55 1.26,12.8 3.54,18.53 6.02,-6.91 12.33,-13.66 18.8,-20.12 1.92,-1.91 4.44,-2.87 6.96,-2.87 0.2,0 0.41,0 0.62,0.02 2.31,0.14 4.58,1.1 6.35,2.87 3.84,3.85 3.83,10.08 -0.02,13.92 -7.39,7.37 -14.55,15.14 -21.27,23.08 -0.05,0.05 -0.09,0.1 -0.14,0.15 9.05,8.96 21.49,14.49 35.23,14.49 27.66,0 50.07,-22.42 50.07,-50.07 0,-11.91 -4.16,-22.86 -11.11,-31.45 -4.86,3.34 -9.66,6.79 -14.33,10.33 -1.78,1.35 -3.87,2 -5.94,2 -2.97,0 -5.91,-1.34 -7.85,-3.9 -3.29,-4.34 -2.43,-10.51 1.9,-13.79 3.41,-2.59 6.88,-5.12 10.39,-7.61 -6.92,-3.61 -14.78,-5.65 -23.13,-5.65"
             style="fill:url(#linearGradient614);stroke:none"
             id="path616" />
        </g>
      </g>
    </g>
    <g
       id="g618">
      <g
         id="g620">
        <g
           id="g626">
          <path
             d="m 2567.82,1761.4 -644.17,-10.71 c -49.03,-0.82 -88.92,-38.94 -88.92,-85.15 v -405.68 c 0,-46.21 39.89,-82.07 88.92,-80.1 l 644.17,25.87 c 46.27,1.86 83.65,39.56 83.65,84.22 v 392.07 c 0,44.67 -37.38,80.25 -83.65,79.48"
             style="fill:url(#linearGradient632);stroke:none"
             id="path634" />
        </g>
      </g>
    </g>
    <g
       id="g636">
      <g
         id="g638">
        <g
           id="g644">
          <path
             d="m 2600.43,1834.77 c -19.51,-0.29 -35.35,14.77 -35.35,33.63 v 88.79 c 0,89.07 -75.35,161.32 -168.62,161.05 l -209.85,-0.6 c -95.67,-0.28 -174.07,-74.66 -174.07,-165.82 v -90.86 c 0,-19.3 -16.61,-35.2 -37.13,-35.51 -20.56,-0.3 -37.25,15.15 -37.25,34.51 v 91.14 c 0,130.1 112.09,235.95 248.45,235.95 h 209.85 c 132.5,0 239.21,-102.81 239.21,-229.17 v -88.53 c 0,-18.81 -15.77,-34.29 -35.24,-34.58"
             style="fill:url(#linearGradient650);stroke:none"
             id="path652" />
        </g>
      </g>
    </g>
    <g
       id="g654">
      <g
         id="g656">
        <g
           id="g662">
          <path
             d="m 2349.96,1536.57 c 0,45.08 -39.36,80.48 -87.21,77.23 -42.3,-2.88 -77.29,-36.76 -79.58,-77.21 -1.77,-31.4 15.48,-58.53 41.71,-72.26 11.15,-5.83 16.69,-18.14 14.52,-30.3 l -18.39,-103.22 c -2.34,-13.14 8.22,-24.69 22.12,-24.19 l 47.27,1.69 c 13.83,0.5 24.32,12.75 22,25.68 l -18.38,102.26 c -2.19,12.19 4.15,24.31 15.33,31 24.33,14.54 40.61,40.33 40.61,69.32"
             style="fill:url(#linearGradient668);stroke:none"
             id="path670" />
        </g>
      </g>
    </g>
    <g
       id="g672">
      <g
         id="g674">
        <g
           id="g680">
          <path
             d="m 1056.18,492.41 c 0.01,0.89 -0.04,1.78 -0.27,2.68 -13.36,52.96 -79.659,85.95 -79.659,85.95 l -26.272,-2.06 c -15.105,-46.68 -13.164,-75.31 -10.738,-88.06 0.067,-0.36 0.176,-0.7 0.271,-1.04 21.672,-1.94 66.278,-3.2 116.668,2.53"
             style="fill:url(#linearGradient686);stroke:none"
             id="path688" />
        </g>
      </g>
    </g>
    <path
       d="m 939.512,489.88 c 1.17,-4.26 4.313,-7.57 8.337,-8.42 30.828,-6.48 79.831,-1.27 100.401,1.42 4.54,0.6 7.86,4.79 7.93,9.53 -50.39,-5.73 -94.996,-4.47 -116.668,-2.53"
       style="fill:#91b3fa;fill-opacity:1;fill-rule:nonzero;stroke:none"
       id="path690" />
    <g
       id="g692">
      <g
         id="g694">
        <g
           id="g700">
          <path
             d="m 939.416,618.11 11.127,-53.57 c 0.815,-3.92 3.831,-6.86 7.484,-7.2 4.472,-0.42 10.837,-0.67 17.239,0.27 5.74,0.84 9.737,6.68 8.72,12.94 l -7.735,47.56 h -36.835"
             style="fill:url(#linearGradient706);stroke:none"
             id="path708" />
        </g>
      </g>
    </g>
    <path
       d="m 1169.96,490.56 c -29.01,0.81 -44.02,4.23 -51.78,7.4 -0.02,-2.89 0,-5.82 0.09,-8.87 0.1,-3.25 2.51,-5.84 5.47,-5.82 l 159.31,1.03 c 5.09,0.03 8.06,5.93 5.85,10.59 -20.88,-1.73 -74.09,-5.59 -118.94,-4.33"
       style="fill:#91b3fa;fill-opacity:1;fill-rule:nonzero;stroke:none"
       id="path710" />
    <g
       id="g712">
      <g
         id="g714">
        <g
           id="g720">
          <path
             d="m 1288.9,494.89 c -0.19,0.4 -0.35,0.82 -0.63,1.2 -14.07,19.66 -49.9,58.81 -120.71,75.78 l -33.97,1.08 c 0,0 -15.12,-26.29 -15.41,-74.99 7.76,-3.17 22.77,-6.59 51.78,-7.4 44.85,-1.26 98.06,2.6 118.94,4.33"
             style="fill:url(#linearGradient726);stroke:none"
             id="path728" />
        </g>
      </g>
    </g>
    <g
       id="g730">
      <g
         id="g732">
        <g
           id="g738">
          <path
             d="m 1125.78,622.85 c 0.54,-2.51 7.6,-40.62 10.34,-55.4 0.65,-3.51 3.39,-6.09 6.64,-6.27 5.82,-0.32 15.2,-0.36 23.27,1.83 4.35,1.18 7.27,5.62 6.96,10.54 l -3.8,60.29 -43.41,-10.99"
             style="fill:url(#linearGradient744);stroke:none"
             id="path746" />
        </g>
      </g>
    </g>
    <g
       id="g748">
      <g
         id="g750">
        <g
           id="g756">
          <path
             d="m 1100.04,1326.59 c 0,0 46.73,-321.09 80.45,-703.19 0.63,-7.12 -5.04,-13.31 -12.03,-14.78 -10.31,-2.17 -25.45,-4.75 -37.98,-4.4 -6.7,0.19 -12.29,5.15 -13.42,11.75 -11.48,67.37 -93.46,428.94 -114.97,508.52 0,0 -24.718,-338.03 -16.819,-513.4 0.197,-4.36 -2.996,-8.14 -7.332,-8.64 -6.577,-0.76 -17.1,-1.34 -30.492,0.08 -5.083,0.54 -9.184,4.38 -9.91,9.44 -8.183,57.02 -55.282,396.41 -53.28,640.89 0.114,13.79 16.177,127.06 16.177,127.06 l 199.606,-53.33"
             style="fill:url(#linearGradient762);stroke:none"
             id="path764" />
        </g>
      </g>
    </g>
    <g
       id="g766">
      <g
         id="g768">
        <g
           id="g774">
          <path
             d="m 1118.15,1866.57 6.25,-168.02 c 17.77,-6.12 34.69,-10.87 50.8,-14.43 10.08,32.45 32.27,72.26 50.43,101.87 -66.75,23.6 -107.48,80.58 -107.48,80.58"
             style="fill:url(#linearGradient780);stroke:none"
             id="path782" />
        </g>
      </g>
    </g>
    <g
       id="g784">
      <g
         id="g786">
        <g
           id="g792">
          <path
             d="m 893.411,1308.09 c -4.805,1.7 -8.154,6.06 -8.677,11.13 -6.214,60.29 -36.301,434.09 153.646,587.86 0,0 10.89,28.5 100.43,-41.56 89.54,-70.06 41.6,-143.49 20.16,-244.77 -25.94,-122.57 -71.45,-222.75 -51.31,-298.17 1.39,-5.21 -1.35,-10.67 -6.4,-12.53 -69.56,-25.64 -138.842,-26.49 -207.849,-1.96"
             style="fill:url(#linearGradient798);stroke:none"
             id="path800" />
        </g>
      </g>
    </g>
    <g
       id="g802">
      <g
         id="g804">
        <g
           id="g810">
          <path
             d="m 1112.47,2019.08 c -0.06,-5.32 -75.9,-113.05 -75.9,-113.05 0,0 13.61,-26.82 78.6,-48.59 l 56.11,115.35 -58.81,46.29"
             style="fill:url(#linearGradient816);stroke:none"
             id="path818" />
        </g>
      </g>
    </g>
    <g
       id="g820">
      <g
         id="g822">
        <g
           id="g828">
          <path
             d="m 1074.9,1650.44 c -0.47,0 -0.95,0.13 -1.38,0.42 -60.59,40.94 -89.092,107.02 -89.374,107.68 -0.529,1.26 0.056,2.7 1.306,3.23 1.256,0.53 2.697,-0.05 3.231,-1.3 0.275,-0.65 28.247,-65.43 87.597,-105.53 1.13,-0.76 1.43,-2.29 0.66,-3.42 -0.47,-0.7 -1.25,-1.08 -2.04,-1.08"
             style="fill:url(#linearGradient834);stroke:none"
             id="path836" />
        </g>
      </g>
    </g>
    <g
       id="g838">
      <g
         id="g840">
        <g
           id="g846">
          <path
             d="m 1165.15,1742.03 c -0.8,0 -1.6,0.39 -2.07,1.13 -0.18,0.28 -18.69,29.09 -53.95,92.23 -10.84,19.41 -25.09,31.7 -42.35,36.53 -28.58,7.99 -56.13,-7.33 -56.4,-7.49 -1.19,-0.65 -2.69,-0.26 -3.36,0.93 -0.67,1.18 -0.26,2.68 0.92,3.35 1.19,0.68 29.52,16.53 60.12,7.97 18.59,-5.19 33.86,-18.27 45.37,-38.89 35.17,-62.97 53.61,-91.68 53.79,-91.97 0.74,-1.14 0.41,-2.66 -0.73,-3.4 -0.42,-0.27 -0.88,-0.39 -1.34,-0.39"
             style="fill:url(#linearGradient852);stroke:none"
             id="path854" />
        </g>
      </g>
    </g>
    <g
       id="g856">
      <g
         id="g858">
        <g
           id="g864">
          <path
             d="m 1172.19,2080.81 c 0,0 26.99,-62 28.8,-94.54 1.82,-32.54 8.83,-53.65 -28.8,-60.2 -37.62,-6.56 -69.32,12.19 -86.49,44.6 0,0 -26.9,49.95 -20.87,70.4 6.04,20.46 107.36,39.74 107.36,39.74"
             style="fill:url(#linearGradient870);stroke:none"
             id="path872" />
        </g>
      </g>
    </g>
    <g
       id="g874">
      <g
         id="g876">
        <g
           id="g882">
          <path
             d="m 1098.56,1993.98 2.14,0.94 c 2.73,1.2 3.89,4.45 2.52,7.09 -5.3,10.26 -15.65,33.75 -2.28,39.23 17.22,7.06 85.43,20.97 100.14,45.17 14.15,23.26 1.62,53.29 -17.22,61.83 -1.26,0.57 -2.75,0.12 -3.39,-1.1 l -1.57,-2.97 c -1.08,-2.04 -4.08,-1.73 -4.72,0.48 -0.61,2.12 -3.43,2.53 -4.6,0.66 -4.53,-7.24 -16.74,-18.98 -49.4,-25.01 -46.42,-8.57 -77.1,-27.35 -77.87,-59.42 -0.05,-2.04 -2.21,-3.17 -3.95,-2.11 -3.43,2.08 -8.92,3.07 -16.25,-3.1 -12.74,-10.72 -7.53,-38.52 20.42,-61.39 1.33,-1.09 1.31,-3.16 -0.12,-4.1 -5.07,-3.3 -12.62,-11.14 6.95,-21.6 20.24,-10.82 35.35,-9.93 41.17,-8.97 1.45,0.23 2.38,1.64 2.07,3.07 l -6.21,28.19 c -0.36,1.6 0.86,3.11 2.49,3.11 h 9.68"
             style="fill:url(#linearGradient888);stroke:none"
             id="path890" />
        </g>
      </g>
    </g>
    <g
       id="g892">
      <g
         id="g894">
        <g
           id="g900">
          <path
             d="m 1099.73,1988.03 c 0,0 -10.3,39.6 -28.05,28.5 -17.76,-11.11 9.21,-44.38 23.48,-45.86 l 4.57,17.36"
             style="fill:url(#linearGradient906);stroke:none"
             id="path908" />
        </g>
      </g>
    </g>
    <g
       id="g910">
      <g
         id="g912">
        <g
           id="g918">
          <path
             d="m 1449.19,1879.21 c 0,0 -13.52,23.98 -12.66,35.63 0.86,11.66 -6.4,28.77 1.32,27.5 7.73,-1.26 9.32,-0.23 11.42,-14.21 2.1,-13.98 26.48,-75.06 -0.08,-48.92"
             style="fill:url(#linearGradient924);stroke:none"
             id="path926" />
        </g>
      </g>
    </g>
    <g
       id="g928">
      <g
         id="g930">
        <g
           id="g936">
          <path
             d="m 1451.74,1917.34 -0.31,-47.91 c -91.57,-98.87 -165.69,-104.69 -225.8,-83.44 -18.17,-29.61 -40.35,-69.42 -50.43,-101.87 244.54,-53.91 302.12,170.9 302.12,170.9 33.12,13.72 39.8,21.74 38.38,30.73 l -63.96,31.59"
             style="fill:url(#linearGradient942);stroke:none"
             id="path944" />
        </g>
      </g>
    </g>
    <g
       id="g946">
      <g
         id="g948">
        <g
           id="g954">
          <path
             d="m 1522.16,1964.87 c -7.82,3.18 -23.11,32.34 -26.04,22.74 -2.93,-9.59 1.24,-22.74 0,-26.82 -1.24,-4.08 -20.3,-51 -16.49,-61.43 2.74,-7.52 17.88,-6.41 20.19,-18.71 0.77,-4.09 4.03,-7.02 7.82,-7.02 3.79,0 7.05,2.92 7.82,7.01 0.31,1.63 14.52,81.06 6.7,84.23"
             style="fill:url(#linearGradient960);stroke:none"
             id="path962" />
        </g>
      </g>
    </g>
    <g
       id="g964">
      <g
         id="g966">
        <g
           id="g972">
          <path
             d="m 1417.14,2047.79 c 24.72,-12.5 34.64,-42.69 22.13,-67.42 -12.5,-24.73 -42.68,-34.64 -67.41,-22.13 -24.73,12.5 -34.65,42.68 -22.14,67.41 12.5,24.73 42.69,34.64 67.42,22.14 z m -144.58,16.87 c -61.75,-122.13 -12.8,-271.19 109.33,-332.94 99.27,-50.18 216.32,-27.24 289.83,48.69 l 424.33,-214.55 c 7.04,-3.56 15.43,-3.27 22.21,0.77 l 41.5,24.72 c 0.72,0.43 1.39,0.9 2.04,1.39 0.19,0.13 0.36,0.28 0.54,0.43 0.48,0.38 0.95,0.78 1.39,1.2 0.15,0.14 0.31,0.28 0.45,0.43 0.56,0.54 1.08,1.11 1.57,1.7 l 0.02,0.03 c 5.21,6.34 6.8,15.19 3.61,23.19 l -33.72,84.54 c -2.08,5.22 -6,9.5 -11.02,12.04 l -42.5,21.49 -11.25,-22.25 -36.51,18.46 11.25,22.25 -34.16,17.27 -10.35,-20.47 -44.37,22.44 10.34,20.46 -16.53,8.36 -5.33,-10.53 -37.2,18.8 5.33,10.54 -28.93,14.63 -11.25,-22.25 -20.67,10.45 11.25,22.25 -17.91,9.05 -11.25,-22.24 -35.82,18.11 11.25,22.24 -50.35,25.46 -21.57,10.9 c 17.57,104.21 -33.34,212.08 -132.61,262.27 -122.13,61.75 -271.19,12.8 -332.94,-109.33"
             style="fill:url(#linearGradient978);stroke:none"
             id="path980" />
        </g>
      </g>
    </g>
    <g
       id="g982">
      <g
         id="g984">
        <g
           id="g990">
          <path
             d="m 1616.51,1989.82 201.16,-101.7 -11.25,-22.25 35.82,-18.11 11.25,22.25 17.91,-9.06 -11.25,-22.24 20.67,-10.45 11.25,22.24 28.93,-14.63 -5.33,-10.53 37.2,-18.81 5.33,10.53 16.53,-8.35 -10.35,-20.47 44.38,-22.44 10.35,20.47 34.16,-17.27 -11.25,-22.25 36.51,-18.46 11.25,22.25 42.5,-21.49 c 5.02,-2.54 8.93,-6.82 11.02,-12.04 l 33.72,-84.53 c 4.2,-10.54 0.12,-22.57 -9.62,-28.37 l -41.5,-24.72 c -6.78,-4.05 -15.17,-4.34 -22.21,-0.77 l -512.24,258.98 25.06,152.22"
             style="fill:url(#linearGradient996);stroke:none"
             id="path998" />
        </g>
      </g>
    </g>
    <g
       id="g1000">
      <g
         id="g1002">
        <g
           id="g1008">
          <path
             d="m 1379.49,1970.99 c -24.72,12.5 -34.64,42.69 -22.13,67.42 12.5,24.73 42.68,34.64 67.41,22.13 24.73,-12.5 34.65,-42.68 22.14,-67.41 -12.5,-24.73 -42.69,-34.64 -67.42,-22.14 z m 10.04,-226.51 c 122.13,-61.75 271.19,-12.8 332.94,109.33 61.75,122.12 12.8,271.19 -109.33,332.93 -122.13,61.75 -271.19,12.8 -332.94,-109.32 -61.75,-122.13 -12.8,-271.19 109.33,-332.94"
             style="fill:url(#linearGradient1014);stroke:none"
             id="path1016" />
        </g>
      </g>
    </g>
    <g
       id="g1018">
      <g
         id="g1020">
        <g
           id="g1026">
          <path
             d="m 1424.77,2060.54 c 24.73,-12.5 34.65,-42.68 22.14,-67.41 -12.5,-24.73 -42.69,-34.64 -67.42,-22.14 -24.72,12.5 -34.64,42.69 -22.13,67.42 12.5,24.73 42.68,34.64 67.41,22.13 z m 254.59,-267.38 424.33,-214.54 c 7.04,-3.57 15.43,-3.28 22.21,0.77 l 41.5,24.72 c 6.26,3.72 10.14,10.02 11.03,16.84 -38.67,41.91 -406.29,202.43 -420.04,235.47 -4.89,11.75 -5.73,29.55 8.92,57.16 l -21.56,10.9 c 17.57,104.21 -33.34,212.08 -132.61,262.26 -122.13,61.75 -271.19,12.8 -332.94,-109.32 -61.75,-122.13 -12.8,-271.19 109.33,-332.94 99.26,-50.19 216.32,-27.25 289.83,48.68"
             style="fill:url(#linearGradient1032);stroke:none"
             id="path1034" />
        </g>
      </g>
    </g>
    <g
       id="g1036">
      <g
         id="g1038">
        <g
           id="g1044">
          <path
             d="m 1379.49,1970.99 c -24.72,12.5 -34.64,42.69 -22.13,67.42 12.5,24.73 42.68,34.64 67.41,22.13 24.73,-12.5 34.65,-42.68 22.14,-67.41 -12.5,-24.73 -42.69,-34.64 -67.42,-22.14 z m 31.98,-183.11 c 98.16,-49.63 217.97,-10.29 267.6,87.87 49.63,98.16 10.29,217.96 -87.87,267.59 -98.16,49.63 -217.97,10.29 -267.6,-87.87 -49.63,-98.16 -10.29,-217.96 87.87,-267.59"
             style="fill:url(#linearGradient1050);stroke:none"
             id="path1052" />
        </g>
      </g>
    </g>
    <g
       id="g1054">
      <g
         id="g1056">
        <g
           id="g1062">
          <path
             d="m 1074.9,1650.44 c 0,0 233.35,-78.12 363.87,21.26 8.1,6.16 18.31,8.85 28.36,7.22 l 49.86,-8.13 c 20.93,-3.41 40.87,10.16 45.38,30.88 2.57,11.81 3.81,24.74 1.19,35.84 l -94.13,5.68 2.69,12.22 c 0,0 -41.61,-10.18 -42.45,-42.73 0,0 -97.59,-63.93 -275.6,35.3 0,0 -69.32,-54.25 -79.17,-97.54"
             style="fill:url(#linearGradient1068);stroke:none"
             id="path1070" />
        </g>
      </g>
    </g>
    <path
       d="m 2877.64,2820.329 c -0.13,0 -0.27,0 -0.4,0.01 -5.43,0.222 -9.66,4.809 -9.43,10.242 0.43,10.555 0.41,21.286 -0.06,31.896 -0.24,5.368 3.87,9.921 9.21,10.261 l 0.19,0.011 c 0.15,0.01 0.3,0.01 0.44,0.01 5.24,0 9.6,-4.126 9.83,-9.411 0.5,-11.167 0.52,-22.464 0.06,-33.576 -0.21,-5.081 -4.23,-9.105 -9.2,-9.421 -0.21,-0.013 -0.43,-0.02 -0.64,-0.02 m -6.05,85.558 c -4.66,0 -8.8,3.322 -9.68,8.071 -1.91,10.442 -4.28,20.899 -7.06,31.093 -1.43,5.242 1.66,10.657 6.91,12.088 0.87,0.233 1.74,0.344 2.59,0.344 4.34,0 8.3,-2.873 9.5,-7.257 2.92,-10.723 5.42,-21.733 7.44,-32.718 0.97,-5.349 -2.57,-10.479 -7.92,-11.458 -0.39,-0.072 -0.77,-0.119 -1.16,-0.143 -0.21,-0.013 -0.41,-0.02 -0.62,-0.02 m -24.75,82.094 c -3.82,0 -7.45,2.234 -9.05,5.965 -4.18,9.727 -8.83,19.389 -13.83,28.725 -2.56,4.793 -0.76,10.761 4.04,13.327 1.47,0.789 3.06,1.164 4.63,1.164 3.51,0 6.92,-1.882 8.69,-5.197 5.27,-9.831 10.17,-20.01 14.56,-30.251 2.15,-4.997 -0.17,-10.785 -5.16,-12.933 -1.07,-0.456 -2.17,-0.711 -3.26,-0.78 -0.21,-0.013 -0.41,-0.02 -0.62,-0.02 m -42.5,74.512 c -3.04,0 -6.03,1.397 -7.96,4.033 -6.25,8.56 -12.95,16.944 -19.91,24.927 -3.57,4.101 -3.14,10.321 0.96,13.891 1.87,1.622 4.17,2.417 6.46,2.417 2.75,0 5.48,-1.142 7.43,-3.374 7.32,-8.406 14.37,-17.234 20.96,-26.238 3.2,-4.389 2.25,-10.551 -2.14,-13.759 -1.57,-1.148 -3.37,-1.762 -5.18,-1.878 -0.21,-0.013 -0.42,-0.019 -0.62,-0.019 m -58.05,63.164 c -2.29,0 -4.59,0.795 -6.46,2.417 -7.98,6.939 -16.37,13.637 -24.93,19.897 -4.39,3.214 -5.35,9.372 -2.14,13.762 1.93,2.637 4.92,4.035 7.95,4.035 2.02,0 4.06,-0.618 5.81,-1.902 9.01,-6.589 17.84,-13.635 26.23,-20.936 4.1,-3.566 4.54,-9.786 0.97,-13.889 -1.8,-2.068 -4.27,-3.204 -6.81,-3.365 -0.2,-0.013 -0.41,-0.019 -0.62,-0.019 m -70.57,48.746 c -1.57,0 -3.17,0.376 -4.65,1.173 -9.32,5.011 -18.98,9.681 -28.71,13.885 -4.99,2.156 -7.29,7.953 -5.13,12.941 1.61,3.72 5.23,5.944 9.04,5.944 1.31,0 2.63,-0.26 3.91,-0.81 10.23,-4.421 20.4,-9.341 30.21,-14.614 4.79,-2.574 6.59,-8.542 4.02,-13.333 -1.68,-3.111 -4.78,-4.958 -8.06,-5.166 -0.21,-0.013 -0.42,-0.02 -0.63,-0.02 m -361.53,0.54 c -3.52,0 -6.92,1.892 -8.69,5.216 -2.56,4.797 -0.75,10.763 4.05,13.322 9.83,5.24 20.02,10.122 30.29,14.508 1.26,0.539 2.57,0.794 3.86,0.794 3.83,0 7.47,-2.242 9.06,-5.981 2.14,-4.998 -0.18,-10.783 -5.18,-12.919 -9.76,-4.165 -19.43,-8.802 -28.77,-13.78 -1.28,-0.682 -2.64,-1.054 -4,-1.14 -0.2,-0.013 -0.41,-0.02 -0.62,-0.02 m 281.98,31.335 c -0.87,0 -1.75,0.117 -2.63,0.357 -10.2,2.809 -20.65,5.21 -31.06,7.131 -5.34,0.991 -8.88,6.127 -7.89,11.472 0.88,4.754 5.03,8.051 9.7,8.051 0.58,0 1.18,-0.051 1.77,-0.159 10.96,-2.025 21.97,-4.552 32.71,-7.512 5.24,-1.443 8.32,-6.862 6.88,-12.106 -1.14,-4.158 -4.79,-6.955 -8.87,-7.215 -0.2,-0.013 -0.4,-0.019 -0.61,-0.019 m -202.23,0.232 c -4.34,0 -8.31,2.89 -9.5,7.277 -1.42,5.247 1.69,10.655 6.94,12.075 10.75,2.905 21.77,5.385 32.75,7.376 0.6,0.112 1.2,0.166 1.79,0.166 4.66,0 8.79,-3.351 9.65,-8.099 0.97,-5.348 -2.58,-10.471 -7.93,-11.443 -10.44,-1.892 -20.91,-4.248 -31.13,-7.012 -0.65,-0.176 -1.3,-0.28 -1.95,-0.32 -0.21,-0.014 -0.42,-0.02 -0.62,-0.02 m 117.5,13.07 c -0.13,0 -0.27,0 -0.41,0.01 -5.33,0.229 -10.7,0.344 -16.07,0.344 -5.28,0 -10.56,-0.111 -15.81,-0.334 -0.14,-0.01 -0.29,-0.01 -0.43,-0.01 -5.24,0 -9.6,4.137 -9.83,9.429 -0.22,5.361 3.88,9.903 9.21,10.241 l 0.21,0.01 c 5.55,0.238 11.14,0.356 16.72,0.356 5.63,0 11.26,-0.12 16.85,-0.36 5.43,-0.237 9.64,-4.829 9.41,-10.262 -0.22,-5.073 -4.24,-9.086 -9.2,-9.401 -0.21,-0.014 -0.43,-0.02 -0.65,-0.02"
       style="fill:#dee8fd;fill-opacity:1;fill-rule:nonzero;stroke:none"
       id="path1072" />
    <g
       id="g1074">
      <g
         id="g1076">
        <g
           id="g1082">
          <path
             d="m 2256.38,3137.027 c -2.9,0 -5.78,1.275 -7.72,3.725 -3.38,4.256 -2.67,10.451 1.59,13.831 4.18,3.321 8.5,6.609 12.84,9.775 1.75,1.282 3.78,1.898 5.8,1.898 3.04,0 6.03,-1.403 7.96,-4.046 3.2,-4.39 2.24,-10.552 -2.15,-13.755 -4.13,-3.014 -8.23,-6.138 -12.21,-9.295 -1.63,-1.298 -3.55,-1.99 -5.49,-2.113 -0.21,-0.013 -0.42,-0.02 -0.62,-0.02"
             style="fill:url(#linearGradient1088);stroke:none"
             id="path1090" />
        </g>
      </g>
    </g>
    <g
       id="g1092">
      <g
         id="g1094">
        <g
           id="g1100">
          <path
             d="m 2112.82,2873.402 c -0.3,0 -0.61,0.015 -0.92,0.045 -5.42,0.52 -9.38,5.327 -8.87,10.74 0.51,5.319 1.14,10.72 1.87,16.045 0.68,4.929 4.88,8.505 9.74,8.505 0.45,0 0.9,-0.03 1.36,-0.093 5.39,-0.741 9.15,-5.708 8.41,-11.097 -0.69,-5.057 -1.29,-10.186 -1.77,-15.237 -0.47,-4.882 -4.43,-8.586 -9.17,-8.887 -0.21,-0.013 -0.43,-0.021 -0.65,-0.021"
             style="fill:url(#linearGradient1106);stroke:none"
             id="path1108" />
        </g>
      </g>
    </g>
    <g
       id="g1110">
      <g
         id="g1112">
        <g
           id="g1118">
          <path
             d="m 2499.53,2453.11 c -5.36,0 -9.76,4.32 -9.83,9.71 -0.08,5.43 4.26,9.89 9.7,9.98 10.35,0.15 20.86,0.74 31.34,1.76 0.33,0.04 0.66,0.05 0.99,0.05 4.98,0 9.27,-3.81 9.77,-8.89 0.52,-5.42 -3.44,-10.23 -8.85,-10.76 -4.54,-0.44 -9.08,-0.81 -13.6,-1.09 -6.45,-0.41 -12.96,-0.67 -19.37,-0.76 -0.05,0 -0.1,0 -0.15,0 m -52.21,2.83 c -0.4,0 -0.8,0.03 -1.21,0.08 -10.87,1.34 -21.83,3.16 -32.58,5.42 -5.33,1.12 -8.73,6.34 -7.61,11.67 0.97,4.63 5.07,7.81 9.63,7.81 0.67,0 1.35,-0.06 2.03,-0.21 10.21,-2.15 20.62,-3.88 30.94,-5.15 5.4,-0.67 9.23,-5.58 8.57,-10.98 -0.59,-4.77 -4.51,-8.32 -9.14,-8.62 -0.21,-0.01 -0.42,-0.02 -0.63,-0.02 m 135.98,7.56 c -4.46,0 -8.5,3.05 -9.57,7.58 -1.25,5.29 2.02,10.59 7.31,11.85 10.16,2.41 20.32,5.27 30.21,8.51 1.02,0.34 2.06,0.5 3.07,0.5 4.14,0 8,-2.65 9.35,-6.79 1.7,-5.17 -1.12,-10.73 -6.29,-12.42 -10.41,-3.41 -21.11,-6.43 -31.8,-8.96 -0.55,-0.13 -1.11,-0.21 -1.66,-0.25 -0.21,-0.01 -0.41,-0.02 -0.62,-0.02 m -218.03,11.97 c -1.1,0 -2.23,0.19 -3.33,0.59 -10.3,3.69 -20.59,7.89 -30.58,12.45 -4.95,2.26 -7.12,8.1 -4.86,13.05 1.65,3.62 5.22,5.75 8.96,5.75 1.37,0 2.76,-0.28 4.08,-0.89 9.5,-4.34 19.27,-8.32 29.05,-11.83 5.12,-1.84 7.78,-7.47 5.95,-12.59 -1.37,-3.82 -4.85,-6.26 -8.65,-6.51 -0.2,-0.01 -0.41,-0.02 -0.62,-0.02 m 297.54,16.43 c -3.65,0 -7.15,2.03 -8.86,5.53 -2.38,4.88 -0.36,10.78 4.53,13.16 9.37,4.58 18.65,9.6 27.59,14.95 1.58,0.94 3.33,1.39 5.04,1.39 3.35,0 6.62,-1.71 8.46,-4.8 2.79,-4.66 1.27,-10.7 -3.4,-13.49 -9.41,-5.63 -19.19,-10.93 -29.05,-15.74 -1.19,-0.58 -2.44,-0.9 -3.69,-0.98 -0.21,-0.02 -0.42,-0.02 -0.62,-0.02 m -373.33,20.64 c -1.81,0 -3.63,0.49 -5.27,1.53 -5.65,3.58 -11.25,7.34 -16.74,11.22 6.13,3.2 11.52,7.63 15.83,12.97 3.78,-2.6 7.6,-5.12 11.45,-7.56 4.6,-2.91 5.96,-8.99 3.05,-13.59 -1.76,-2.76 -4.66,-4.36 -7.7,-4.55 -0.21,-0.01 -0.42,-0.02 -0.62,-0.02"
             style="fill:url(#linearGradient1124);stroke:none"
             id="path1126" />
        </g>
      </g>
    </g>
    <g
       id="g1128">
      <g
         id="g1130">
        <g
           id="g1136">
          <path
             d="m 2267.47,2525.29 c -3.51,2.49 -6.98,5.02 -10.39,7.61 -4.33,3.28 -5.19,9.45 -1.9,13.79 1.94,2.56 4.88,3.9 7.85,3.9 2.07,0 4.16,-0.65 5.94,-2 4.67,-3.54 9.47,-6.99 14.33,-10.33 -4.31,-5.34 -9.7,-9.77 -15.83,-12.97"
             style="fill:url(#linearGradient1142);stroke:none"
             id="path1144" />
        </g>
      </g>
    </g>
    <g
       id="g1146">
      <g
         id="g1148">
        <g
           id="g1154">
          <path
             d="m 2197.81,2588.24 c -1.21,1.38 -2.4,2.77 -3.59,4.17 -3.51,4.15 -3,10.36 1.15,13.88 1.85,1.57 4.11,2.33 6.36,2.33 2.73,0 5.44,-1.13 7.38,-3.33 -4.85,-4.8 -8.73,-10.6 -11.3,-17.05"
             style="fill:url(#linearGradient1160);stroke:none"
             id="path1162" />
        </g>
      </g>
    </g>
    <g
       id="g1164">
      <g
         id="g1166">
        <g
           id="g1172">
          <path
             d="m 2223.57,2565.25 c -2.52,0 -5.04,0.96 -6.96,2.87 -6.47,6.46 -12.78,13.21 -18.8,20.12 2.57,6.45 6.45,12.25 11.3,17.05 0.05,-0.05 0.09,-0.1 0.14,-0.15 6.72,-7.94 13.88,-15.71 21.27,-23.08 3.85,-3.84 3.86,-10.07 0.02,-13.92 -1.77,-1.77 -4.04,-2.73 -6.35,-2.87 -0.21,-0.02 -0.42,-0.02 -0.62,-0.02"
             style="fill:url(#linearGradient1178);stroke:none"
             id="path1180" />
        </g>
      </g>
    </g>
    <g
       id="g1182">
      <g
         id="g1184">
        <g
           id="g1190">
          <path
             d="m 2170.73,2631.07 c -3.26,0 -6.44,1.61 -8.32,4.56 -5.89,9.27 -11.45,18.9 -16.53,28.62 -2.52,4.82 -0.65,10.77 4.17,13.29 1.45,0.76 3.01,1.12 4.54,1.12 3.55,0 6.99,-1.93 8.75,-5.29 4.82,-9.23 10.1,-18.37 15.69,-27.18 2.92,-4.59 1.56,-10.67 -3.03,-13.58 -1.45,-0.93 -3.04,-1.42 -4.65,-1.52 -0.2,-0.01 -0.41,-0.02 -0.62,-0.02"
             style="fill:url(#linearGradient1196);stroke:none"
             id="path1198" />
        </g>
      </g>
    </g>
    <g
       id="g1200">
      <g
         id="g1202">
        <g
           id="g1208">
          <path
             d="m 2135.83,2741.896 h -20.46 c -0.28,1.028 -0.56,2.055 -0.83,3.083 -1.39,5.256 1.74,10.649 6.99,12.043 0.84,0.223 1.69,0.33 2.52,0.33 4.36,0 8.35,-2.908 9.52,-7.32 0.72,-2.714 1.48,-5.428 2.26,-8.136"
             style="fill:url(#linearGradient1214);stroke:none"
             id="path1216" />
        </g>
      </g>
    </g>
    <g
       id="g1218">
      <g
         id="g1220">
        <g
           id="g1226">
          <path
             d="m 2133.62,2706.91 c -4.04,0 -7.83,2.51 -9.27,6.536 -3.33,9.314 -6.35,18.87 -8.98,28.45 h 20.46 c 2.13,-7.35 4.5,-14.656 7.06,-21.815 1.83,-5.118 -0.83,-10.751 -5.95,-12.591 -0.89,-0.31 -1.8,-0.5 -2.7,-0.56 -0.21,-0.01 -0.41,-0.02 -0.62,-0.02"
             style="fill:url(#linearGradient1232);stroke:none"
             id="path1234" />
        </g>
      </g>
    </g>
    <g
       id="g1236">
      <g
         id="g1238">
        <g
           id="g1244">
          <path
             d="m 2114.08,2789.004 c -4.89,0 -9.13,3.644 -9.75,8.625 -1.01,8.01 -1.77,16.149 -2.28,24.191 -0.19,2.912 -0.34,5.816 -0.46,8.718 -0.23,5.43 3.92,10.122 9.43,10.244 0.14,0.01 0.28,0.01 0.42,0.01 5.24,0 9.6,-4.143 9.82,-9.436 0.12,-2.755 0.26,-5.521 0.44,-8.288 0.48,-7.647 1.21,-15.38 2.16,-22.996 0.68,-5.394 -3.15,-10.316 -8.55,-10.989 -0.2,-0.025 -0.4,-0.046 -0.6,-0.058 -0.21,-0.013 -0.42,-0.02 -0.63,-0.02"
             style="fill:url(#linearGradient1250);stroke:none"
             id="path1252" />
        </g>
      </g>
    </g>
    <g
       id="g1254">
      <g
         id="g1256">
        <g
           id="g1262">
          <path
             d="m 2734.28,2537.26 c -2.88,0 -5.74,1.26 -7.68,3.68 -3.4,4.24 -2.72,10.44 1.52,13.84 3.95,3.17 7.9,6.48 11.76,9.84 1.87,1.63 4.17,2.43 6.46,2.43 2.75,0 5.48,-1.15 7.43,-3.38 3.57,-4.1 3.15,-10.31 -0.95,-13.89 -4.06,-3.54 -8.22,-7.03 -12.38,-10.36 -1.64,-1.32 -3.58,-2.02 -5.53,-2.14 -0.21,-0.02 -0.42,-0.02 -0.63,-0.02"
             style="fill:url(#linearGradient1268);stroke:none"
             id="path1270" />
        </g>
      </g>
    </g>
    <path
       d="m 2753.51,2705.03 c 1.14,1.6 1.14,3.75 0.01,5.347 l -32.44,45.657 c 9.97,24.182 16.15,50.126 17.92,76.983 l 49.21,26.656 c 1.73,0.935 2.67,2.863 2.35,4.8 l -10.99,66.272 c -0.32,1.937 -1.83,3.457 -3.77,3.784 l -55.18,9.344 c -10.35,24.848 -24.57,47.409 -41.81,67.078 l 15.96,53.682 c 0.56,1.882 -0.14,3.911 -1.74,5.054 l -54.63,39.09 c -1.59,1.142 -3.74,1.146 -5.34,0.01 l -45.66,-32.436 c -24.18,9.968 -50.12,16.152 -76.98,17.92 l -26.66,49.214 c -0.93,1.727 -2.86,2.67 -4.8,2.348 l -66.27,-10.99 c -1.94,-0.321 -3.46,-1.836 -3.78,-3.771 l -9.35,-55.185 c -24.85,-10.344 -47.41,-24.571 -67.07,-41.811 l -53.69,15.962 c -1.88,0.56 -3.91,-0.136 -5.05,-1.733 l -39.09,-54.633 c -1.14,-1.596 -1.15,-3.742 -0.01,-5.342 l 32.44,-45.658 c -9.97,-24.18 -16.16,-50.124 -17.92,-76.983 l -49.22,-26.656 c -1.72,-0.934 -2.67,-2.862 -2.35,-4.799 l 10.99,-66.273 c 0.33,-1.937 1.84,-3.456 3.78,-3.784 l 55.18,-9.343 c 10.34,-24.849 24.57,-47.413 41.81,-67.083 l -15.96,-53.68 c -0.56,-1.88 0.14,-3.91 1.73,-5.05 l 54.64,-39.09 c 1.59,-1.14 3.74,-1.15 5.34,-0.01 l 45.65,32.43 c 24.19,-9.96 50.13,-16.15 76.99,-17.92 l 26.65,-49.21 c 0.94,-1.72 2.87,-2.67 4.8,-2.35 l 66.28,10.99 c 1.93,0.33 3.45,1.84 3.78,3.78 l 9.34,55.18 c 24.85,10.34 47.41,24.57 67.08,41.81 l 53.68,-15.96 c 1.89,-0.56 3.91,0.13 5.06,1.73 l 39.09,54.63"
       style="fill:#91b3fa;fill-opacity:1;fill-rule:nonzero;stroke:none"
       id="path1272" />
    <path
       d="m 2460.63,2888.869 c -10.55,-8.936 -17,-21.445 -18.14,-35.229 -2.37,-28.447 18.85,-53.52 47.3,-55.884 28.46,-2.375 53.52,18.858 55.89,47.309 2.36,28.447 -18.86,53.519 -47.31,55.884 -2.58,0.214 -5.14,0.236 -7.68,0.075 -11.01,-0.699 -21.48,-4.894 -30.06,-12.155 z m 27.86,-106.81 c -37.11,3.086 -64.78,35.78 -61.7,72.889 1.49,17.976 9.9,34.293 23.67,45.946 13.76,11.652 31.24,17.251 49.22,15.752 37.1,-3.086 64.78,-35.78 61.7,-72.889 -2.81,-33.758 -30.12,-59.712 -62.97,-61.797 -3.26,-0.207 -6.58,-0.178 -9.92,0.099"
       style="fill:#bdd0fb;fill-opacity:1;fill-rule:nonzero;stroke:none"
       id="path1274" />
    <path
       d="m 2503.21,2684.54 c 5.64,0.36 11.29,1 16.95,1.94 1.78,0.29 3.55,0.62 5.32,0.97 8.73,1.73 17.3,4.16 25.59,7.24 0.11,0.05 0.22,0.09 0.33,0.13 0.32,0.12 0.64,0.24 0.96,0.36 0.63,0.24 1.25,0.48 1.87,0.73 1.62,0.64 2.58,2.25 2.48,3.9 -0.03,0.41 -0.12,0.81 -0.27,1.21 -0.8,2.02 -3.09,3.01 -5.11,2.21 -10.41,-4.12 -21.33,-7.14 -32.46,-8.98 -55.29,-9.18 -108.74,11.66 -143.67,50.552 -19.44,21.63 -33.14,48.849 -38.24,79.601 -0.89,5.392 -1.51,10.79 -1.85,16.172 -2.29,36.216 7.86,71.823 29.26,101.733 24.58,34.358 61.07,57.087 102.75,63.998 86.07,14.265 167.64,-44.123 181.9,-130.154 0.88,-5.304 1.49,-10.633 1.83,-15.965 1.46,-23.102 -2.15,-46.267 -10.65,-67.82 -0.22,-0.558 -0.31,-1.134 -0.27,-1.694 0.09,-1.474 1.02,-2.837 2.49,-3.414 2.02,-0.792 4.31,0.189 5.11,2.22 8.92,22.628 12.71,46.95 11.18,71.203 -0.36,5.596 -0.99,11.19 -1.92,16.757 -14.97,90.326 -100.67,151.611 -190.96,136.639 -43.75,-7.255 -82.06,-31.117 -107.87,-67.186 -22.47,-31.399 -33.12,-68.781 -30.71,-106.801 0.36,-5.65 1.01,-11.316 1.94,-16.975 7.26,-43.756 31.12,-82.064 67.19,-107.871 31.4,-22.475 68.8,-33.125 106.83,-30.705"
       style="fill:#bdd0fb;fill-opacity:1;fill-rule:nonzero;stroke:none"
       id="path1276" />
    <path
       d="m 3229.63,2582.69 c -0.44,0 -0.89,0.04 -1.34,0.14 -3.28,0.75 -5.33,4 -4.59,7.27 1.08,4.81 2.04,9.71 2.83,14.57 0.49,2.97 3.06,5.1 5.98,5.1 0.33,0 0.67,-0.03 1,-0.09 3.32,-0.54 5.57,-3.67 5.02,-6.98 -0.83,-5.1 -1.83,-10.24 -2.97,-15.27 -0.61,-2.7 -2.92,-4.57 -5.54,-4.73 -0.13,-0.01 -0.26,-0.01 -0.39,-0.01"
       style="fill:#dee8fd;fill-opacity:1;fill-rule:nonzero;stroke:none"
       id="path1278" />
    <path
       d="m 3235.69,2629.07 c -0.08,0 -0.15,0 -0.22,0 -3.36,0.13 -5.97,2.95 -5.85,6.31 0.33,8.47 0.22,17.06 -0.32,25.51 -0.11,1.79 -0.24,3.58 -0.4,5.37 -0.28,3.34 2.2,6.28 5.55,6.57 0.09,0 0.18,0.01 0.28,0.01 3.07,0 6.02,-2.31 6.29,-5.56 0.16,-1.88 0.3,-3.75 0.42,-5.62 0.56,-8.86 0.68,-17.86 0.34,-26.75 -0.12,-3.14 -2.61,-5.64 -5.69,-5.83 -0.13,-0.01 -0.27,-0.01 -0.4,-0.01 m -5.31,62.91 c -2.82,0 -5.35,1.97 -5.95,4.84 -2.1,10.05 -4.85,20.073 -8.16,29.77 -1.09,3.18 0.6,6.632 3.79,7.72 0.64,0.22 1.3,0.324 1.95,0.324 2.53,0 4.9,-1.582 5.77,-4.112 3.47,-10.163 6.35,-20.672 8.55,-31.212 0.69,-3.29 -1.42,-6.51 -4.7,-7.2 -0.29,-0.06 -0.58,-0.1 -0.87,-0.12 -0.13,-0.01 -0.26,-0.01 -0.38,-0.01 m -20.43,59.741 c -2.25,0 -4.42,1.256 -5.47,3.414 -4.5,9.223 -9.63,18.257 -15.24,26.862 -1.83,2.812 -1.04,6.581 1.77,8.414 1.03,0.671 2.19,0.992 3.33,0.992 1.98,0 3.92,-0.972 5.09,-2.761 5.88,-9.021 11.26,-18.505 15.98,-28.173 1.47,-3.017 0.22,-6.662 -2.8,-8.133 -0.74,-0.355 -1.51,-0.553 -2.28,-0.602 -0.13,-0.01 -0.26,-0.013 -0.38,-0.013 m -34.5,52.893 c -1.73,0 -3.45,0.732 -4.65,2.157 -6.63,7.849 -13.81,15.361 -21.34,22.309 -2.47,2.284 -2.62,6.13 -0.34,8.594 1.2,1.295 2.83,1.953 4.47,1.953 1.48,0 2.95,-0.532 4.12,-1.61 7.9,-7.293 15.42,-15.164 22.38,-23.397 2.17,-2.564 1.85,-6.405 -0.72,-8.573 -1.04,-0.869 -2.28,-1.341 -3.53,-1.421 -0.13,-0.01 -0.26,-0.012 -0.39,-0.012 m -46.36,42.863 c -1.23,0 -2.47,0.372 -3.55,1.143 -8.34,5.998 -17.12,11.533 -26.12,16.461 -2.94,1.61 -4.02,5.308 -2.41,8.254 1.11,2.018 3.19,3.164 5.34,3.164 0.99,0 1.99,-0.242 2.92,-0.754 9.42,-5.161 18.63,-10.966 27.37,-17.249 2.73,-1.963 3.35,-5.762 1.39,-8.487 -1.11,-1.54 -2.8,-2.409 -4.56,-2.519 -0.12,-0.01 -0.25,-0.013 -0.38,-0.013 m -55.36,30.308 c -0.74,0 -1.5,0.135 -2.24,0.429 -9.53,3.786 -19.4,7.009 -29.31,9.581 -3.25,0.841 -5.21,4.163 -4.36,7.412 0.71,2.74 3.17,4.554 5.88,4.554 0.51,0 1.02,-0.062 1.53,-0.193 10.4,-2.695 20.75,-6.079 30.75,-10.05 3.12,-1.242 4.65,-4.774 3.41,-7.894 -0.9,-2.257 -3,-3.683 -5.27,-3.827 -0.13,-0.01 -0.26,-0.012 -0.39,-0.012 m -155.33,10.639 c -2.74,0 -5.23,1.863 -5.9,4.641 -0.8,3.263 1.2,6.55 4.46,7.346 9.04,2.205 18.34,3.949 27.64,5.188 1.42,0.197 2.82,0.37 4.23,0.537 0.28,0.041 0.56,0.06 0.83,0.06 2.98,0 5.56,-2.341 5.91,-5.405 0.39,-3.336 -2,-6.35 -5.34,-6.741 -1.32,-0.149 -2.65,-0.317 -3.99,-0.503 -8.9,-1.184 -17.78,-2.849 -26.4,-4.949 -0.35,-0.087 -0.71,-0.14 -1.06,-0.162 -0.13,-0.01 -0.25,-0.012 -0.38,-0.012 m 94.26,5.21 c -0.26,0 -0.52,0.016 -0.79,0.05 -10.14,1.326 -20.5,2.032 -30.8,2.092 -3.35,0.024 -6.06,2.763 -6.04,6.12 0.02,3.357 2.76,6.012 6.12,6.048 10.79,-0.072 21.66,-0.809 32.3,-2.2 3.33,-0.436 5.68,-3.488 5.24,-6.819 -0.38,-2.928 -2.79,-5.098 -5.64,-5.279 -0.13,-0.01 -0.26,-0.012 -0.39,-0.012"
       style="fill:#dee8fd;fill-opacity:1;fill-rule:nonzero;stroke:none"
       id="path1280" />
    <g
       id="g1282">
      <g
         id="g1284">
        <g
           id="g1290">
          <path
             d="m 2979.05,2382.62 c -6.21,0 -12.43,0.22 -18.59,0.65 -3.34,0.24 -5.87,3.15 -5.63,6.5 0.23,3.22 2.94,5.65 6.11,5.65 0.13,0 0.26,-0.01 0.39,-0.02 5.85,-0.41 11.77,-0.62 17.69,-0.62 4.23,0 8.46,0.11 12.67,0.32 0.1,0.01 0.21,0.01 0.31,0.01 3.22,0 5.9,-2.53 6.06,-5.78 0.17,-3.32 -2.37,-6.16 -5.68,-6.37 l -0.08,-0.01 c -4.4,-0.22 -8.83,-0.33 -13.25,-0.33 m 43.86,3.76 c -2.9,0 -5.47,2.09 -5.98,5.05 -0.57,3.31 1.65,6.45 4.96,7.02 9.96,1.72 19.91,4.05 29.58,6.94 0.58,0.17 1.16,0.25 1.73,0.25 2.62,0 5.05,-1.69 5.84,-4.34 0.96,-3.21 -0.87,-6.6 -4.08,-7.56 -10.14,-3.03 -20.57,-5.48 -31.01,-7.27 -0.22,-0.04 -0.43,-0.07 -0.65,-0.08 -0.13,-0.01 -0.26,-0.01 -0.39,-0.01 m -92.85,0.97 c -0.38,0 -0.78,0.03 -1.17,0.11 -10.41,2.04 -20.78,4.73 -30.82,8.01 -3.2,1.04 -4.94,4.47 -3.9,7.66 0.83,2.57 3.21,4.2 5.78,4.2 0.62,0 1.26,-0.1 1.88,-0.3 9.58,-3.12 19.47,-5.69 29.4,-7.64 3.29,-0.65 5.44,-3.84 4.79,-7.13 -0.54,-2.77 -2.88,-4.73 -5.58,-4.9 -0.12,-0.01 -0.25,-0.01 -0.38,-0.01"
             style="fill:url(#linearGradient1296);stroke:none"
             id="path1298" />
        </g>
      </g>
    </g>
    <path
       d="m 3113.52,2419.47 c -1.51,3.65 -3.06,7.35 -4.6,10.99 0.39,0.08 0.79,0.12 1.18,0.12 2.08,0 4.1,-1.06 5.24,-2.97 1.65,-2.79 0.82,-6.35 -1.82,-8.14"
       style="fill:#dee8fd;fill-opacity:1;fill-rule:nonzero;stroke:none"
       id="path1300" />
    <g
       id="g1302">
      <g
         id="g1304">
        <g
           id="g1310">
          <path
             d="m 3084.25,2404.49 v 13.29 c 7.78,3.59 15.41,7.6 22.76,11.95 0.61,0.36 1.25,0.6 1.91,0.73 1.54,-3.64 3.09,-7.34 4.6,-10.99 -0.1,-0.07 -0.21,-0.14 -0.31,-0.2 -9.1,-5.4 -18.64,-10.3 -28.34,-14.55 -0.21,-0.09 -0.41,-0.16 -0.62,-0.23"
             style="fill:url(#linearGradient1316);stroke:none"
             id="path1318" />
        </g>
      </g>
    </g>
    <g
       id="g1320">
      <g
         id="g1322">
        <g
           id="g1328">
          <path
             d="m 3082.43,2404.21 c -2.34,0 -4.58,1.36 -5.58,3.64 -1.34,3.07 0.06,6.66 3.13,8.01 1.43,0.63 2.85,1.27 4.27,1.92 v -13.29 c -0.47,-0.15 -0.96,-0.24 -1.44,-0.27 -0.13,-0.01 -0.26,-0.01 -0.38,-0.01 m -211.4,2.37 c -0.86,0 -1.73,0.19 -2.56,0.57 -9.59,4.48 -19.01,9.58 -27.99,15.19 -2.85,1.77 -3.72,5.52 -1.94,8.38 1.15,1.84 3.14,2.86 5.17,2.86 1.09,0 2.21,-0.3 3.21,-0.92 8.57,-5.35 17.54,-10.22 26.69,-14.48 3.04,-1.42 4.36,-5.04 2.94,-8.09 -0.97,-2.08 -2.99,-3.36 -5.13,-3.49 -0.13,-0.01 -0.26,-0.02 -0.39,-0.02 m -52.69,32.84 c -1.34,0 -2.69,0.45 -3.81,1.35 -8.26,6.65 -16.18,13.87 -23.55,21.44 -2.34,2.4 -2.29,6.25 0.11,8.59 1.18,1.15 2.71,1.73 4.24,1.73 1.59,0 3.17,-0.62 4.36,-1.84 7.03,-7.22 14.59,-14.1 22.47,-20.45 2.61,-2.11 3.02,-5.94 0.92,-8.55 -1.12,-1.38 -2.71,-2.15 -4.36,-2.25 -0.13,-0.01 -0.25,-0.02 -0.38,-0.02 m -43.31,44.52 c -1.84,0 -3.65,0.83 -4.85,2.4 -6.42,8.44 -12.39,17.35 -17.72,26.47 -1.69,2.9 -0.72,6.63 2.18,8.32 0.97,0.56 2.02,0.83 3.06,0.83 2.09,0 4.13,-1.08 5.26,-3.01 5.08,-8.7 10.77,-17.2 16.9,-25.24 2.04,-2.67 1.52,-6.49 -1.15,-8.52 -0.99,-0.76 -2.14,-1.16 -3.3,-1.23 -0.13,-0.01 -0.26,-0.02 -0.38,-0.02"
             style="fill:url(#linearGradient1334);stroke:none"
             id="path1336" />
        </g>
      </g>
    </g>
    <path
       d="m 3136.08,2436.06 c -1.81,0 -3.61,0.82 -4.81,2.36 -2.06,2.66 -1.57,6.48 1.09,8.53 3.93,3.04 7.78,6.21 11.46,9.42 1.15,1 2.58,1.49 3.99,1.49 1.7,0 3.39,-0.7 4.59,-2.08 2.21,-2.53 1.94,-6.37 -0.58,-8.58 -3.86,-3.36 -7.9,-6.68 -12.02,-9.86 -1,-0.78 -2.16,-1.19 -3.33,-1.26 -0.13,-0.01 -0.26,-0.02 -0.39,-0.02"
       style="fill:#dee8fd;fill-opacity:1;fill-rule:nonzero;stroke:none"
       id="path1338" />
    <path
       d="m 3152.61,2550.71 c 0.76,1.07 0.76,2.51 0,3.58 l -21.7,30.55 c 6.67,16.18 10.81,33.54 11.99,51.51 l 32.93,17.84 c 1.16,0.63 1.79,1.92 1.57,3.21 l -7.35,44.35 c -0.22,1.29 -1.23,2.31 -2.52,2.53 l -36.93,6.252 c -6.92,16.628 -16.44,31.725 -27.98,44.886 l 10.68,35.922 c 0.38,1.259 -0.09,2.617 -1.16,3.381 l -36.56,26.158 c -1.06,0.765 -2.5,0.767 -3.57,0.01 l -30.55,-21.704 c -16.18,6.67 -33.54,10.808 -51.52,11.991 l -17.83,32.932 c -0.63,1.155 -1.92,1.786 -3.21,1.571 l -44.35,-7.354 c -1.3,-0.216 -2.31,-1.229 -2.53,-2.524 l -6.26,-36.927 c -16.62,-6.922 -31.72,-16.441 -44.88,-27.978 l -35.92,10.681 c -1.26,0.374 -2.62,-0.091 -3.38,-1.159 l -26.16,-36.559 c -0.77,-1.068 -0.77,-2.504 -0.01,-3.574 l 21.71,-30.551 c -6.67,-16.18 -10.81,-33.54 -11.99,-51.51 l -32.94,-17.84 c -1.15,-0.63 -1.78,-1.92 -1.57,-3.21 l 7.36,-44.35 c 0.21,-1.3 1.22,-2.31 2.52,-2.53 l 36.93,-6.25 c 6.92,-16.63 16.44,-31.73 27.97,-44.89 l -10.68,-35.92 c -0.37,-1.26 0.09,-2.62 1.16,-3.38 l 36.56,-26.16 c 1.07,-0.77 2.51,-0.77 3.58,-0.01 l 30.55,21.71 c 16.18,-6.67 33.54,-10.81 51.51,-11.99 l 17.84,-32.94 c 0.62,-1.15 1.91,-1.78 3.21,-1.57 l 44.35,7.36 c 1.29,0.21 2.31,1.23 2.53,2.52 l 6.25,36.93 c 16.63,6.92 31.72,16.44 44.89,27.98 l 35.92,-10.68 c 1.26,-0.38 2.62,0.09 3.38,1.15 l 26.16,36.56"
       style="fill:#91b3fa;fill-opacity:1;fill-rule:nonzero;stroke:none"
       id="path1340" />
    <path
       d="m 2945.29,2650.09 c -0.75,-9.01 2.06,-17.77 7.9,-24.67 5.83,-6.89 14.01,-11.11 23.02,-11.86 9.01,-0.73 17.76,2.06 24.67,7.9 6.89,5.84 11.1,14.02 11.85,23.02 1.55,18.59 -12.32,34.97 -30.91,36.52 -1.68,0.14 -3.34,0.16 -4.97,0.05 -16.46,-1.04 -30.15,-14.05 -31.56,-30.96 z m 29.92,-48.64 c -12.25,1.01 -23.37,6.74 -31.31,16.12 -7.93,9.37 -11.75,21.28 -10.73,33.52 2.1,25.28 24.34,44.09 49.66,42.03 25.27,-2.1 44.12,-24.38 42.02,-49.64 -1.02,-12.25 -6.74,-23.36 -16.12,-31.3 -7.62,-6.45 -16.92,-10.18 -26.71,-10.8 -2.25,-0.14 -4.53,-0.12 -6.81,0.07"
       style="fill:#bdd0fb;fill-opacity:1;fill-rule:nonzero;stroke:none"
       id="path1342" />
    <path
       d="m 2985.45,2533.57 c 3.84,0.25 7.7,0.69 11.57,1.33 7.7,1.27 15.27,3.33 22.53,6.12 0.32,0.13 0.65,0.26 0.97,0.38 2.52,1 4,3.48 3.84,6.04 -0.04,0.62 -0.18,1.25 -0.42,1.86 -1.23,3.12 -4.77,4.63 -7.89,3.41 -6.75,-2.67 -13.82,-4.62 -21.01,-5.81 -0.4,-0.07 -0.79,-0.13 -1.19,-0.19 -17.04,-2.66 -34.1,-0.97 -49.92,4.69 -8.59,3.07 -16.81,7.32 -24.47,12.7 l -0.19,0.13 c -0.19,0.14 -0.38,0.27 -0.56,0.4 -22.25,15.92 -36.96,39.54 -41.43,66.52 -0.59,3.49 -0.98,6.99 -1.2,10.47 -1.49,23.45 5.08,46.5 18.93,65.86 15.92,22.245 39.54,36.955 66.52,41.428 26.97,4.46 54.09,-1.827 76.33,-17.737 22.24,-15.915 36.96,-39.541 41.43,-66.521 0.57,-3.43 0.97,-6.88 1.18,-10.33 0.95,-14.96 -1.38,-29.95 -6.89,-43.9 -0.34,-0.86 -0.47,-1.75 -0.41,-2.62 0.14,-2.27 1.57,-4.38 3.83,-5.27 3.13,-1.22 6.66,0.3 7.9,3.43 6.15,15.61 8.77,32.39 7.71,49.12 -0.24,3.86 -0.68,7.72 -1.32,11.56 -5,30.19 -21.47,56.617 -46.35,74.423 -24.89,17.801 -55.2,24.874 -85.4,19.845 -30.18,-5.004 -56.61,-21.462 -74.41,-46.352 -15.51,-21.666 -22.85,-47.456 -21.19,-73.686 0.24,-3.89 0.69,-7.8 1.34,-11.7 9.69,-58.45 62.28,-99.27 120.17,-95.6"
       style="fill:#bdd0fb;fill-opacity:1;fill-rule:nonzero;stroke:none"
       id="path1344" />
  </g>
</svg>
